%TF.GenerationSoftware,KiCad,Pcbnew,10.0.6*%
%TF.CreationDate,2026-09-09T21:57:20-05:00*%
%TF.ProjectId,dlr_carrier,646c725f-6361-4727-9269-65722e6b6963,rev?*%
%TF.SameCoordinates,Original*%
%TF.FileFunction,Copper,L1,Top*%
%TF.FilePolarity,Positive*%
%FSLAX46Y46*%
G04 Gerber Fmt 4.6, Leading zero omitted, Abs format (unit mm)*
G04 Created by KiCad (PCBNEW 10.0.6) date 2026-09-09 21:57:20*
%MOMM*%
%LPD*%
G01*
G04 APERTURE LIST*
G04 Aperture macros list*
%AMRoundRect*
0 Rectangle with rounded corners*
0 $1 Rounding radius*
0 $2 $3 $4 $5 $6 $7 $8 $9 X,Y pos of 4 corners*
0 Add a 4 corners polygon primitive as box body*
4,1,4,$2,$3,$4,$5,$6,$7,$8,$9,$2,$3,0*
0 Add four circle primitives for the rounded corners*
1,1,$1+$1,$2,$3*
1,1,$1+$1,$4,$5*
1,1,$1+$1,$6,$7*
1,1,$1+$1,$8,$9*
0 Add four rect primitives between the rounded corners*
20,1,$1+$1,$2,$3,$4,$5,0*
20,1,$1+$1,$4,$5,$6,$7,0*
20,1,$1+$1,$6,$7,$8,$9,0*
20,1,$1+$1,$8,$9,$2,$3,0*%
G04 Aperture macros list end*
%TA.AperFunction,SMDPad,CuDef*%
%ADD10RoundRect,0.140000X-0.140000X-0.170000X0.140000X-0.170000X0.140000X0.170000X-0.140000X0.170000X0*%
%TD*%
%TA.AperFunction,SMDPad,CuDef*%
%ADD11RoundRect,0.050000X-0.050000X-0.300000X0.050000X-0.300000X0.050000X0.300000X-0.050000X0.300000X0*%
%TD*%
%TA.AperFunction,SMDPad,CuDef*%
%ADD12RoundRect,0.135000X-0.135000X-0.185000X0.135000X-0.185000X0.135000X0.185000X-0.135000X0.185000X0*%
%TD*%
%TA.AperFunction,SMDPad,CuDef*%
%ADD13RoundRect,0.250000X-0.325000X-0.650000X0.325000X-0.650000X0.325000X0.650000X-0.325000X0.650000X0*%
%TD*%
%TA.AperFunction,SMDPad,CuDef*%
%ADD14RoundRect,0.162500X-0.162500X-0.412500X0.162500X-0.412500X0.162500X0.412500X-0.162500X0.412500X0*%
%TD*%
%TA.AperFunction,SMDPad,CuDef*%
%ADD15RoundRect,0.112500X-0.112500X-0.537500X0.112500X-0.537500X0.112500X0.537500X-0.112500X0.537500X0*%
%TD*%
%TA.AperFunction,SMDPad,CuDef*%
%ADD16RoundRect,0.250000X-0.450000X-0.600000X0.450000X-0.600000X0.450000X0.600000X-0.450000X0.600000X0*%
%TD*%
%TA.AperFunction,SMDPad,CuDef*%
%ADD17RoundRect,0.135000X-0.135000X-0.265000X0.135000X-0.265000X0.135000X0.265000X-0.135000X0.265000X0*%
%TD*%
%TA.AperFunction,SMDPad,CuDef*%
%ADD18R,2.850000X6.600000*%
%TD*%
%TA.AperFunction,SMDPad,CuDef*%
%ADD19RoundRect,0.135000X0.185000X-0.135000X0.185000X0.135000X-0.185000X0.135000X-0.185000X-0.135000X0*%
%TD*%
%TA.AperFunction,SMDPad,CuDef*%
%ADD20RoundRect,0.250000X-0.275000X-0.250000X0.275000X-0.250000X0.275000X0.250000X-0.275000X0.250000X0*%
%TD*%
%TA.AperFunction,SMDPad,CuDef*%
%ADD21RoundRect,0.250000X-0.850000X-0.275000X0.850000X-0.275000X0.850000X0.275000X-0.850000X0.275000X0*%
%TD*%
%TA.AperFunction,SMDPad,CuDef*%
%ADD22RoundRect,0.150000X-0.512500X-0.150000X0.512500X-0.150000X0.512500X0.150000X-0.512500X0.150000X0*%
%TD*%
%TA.AperFunction,ComponentPad*%
%ADD23R,1.700000X1.700000*%
%TD*%
%TA.AperFunction,ComponentPad*%
%ADD24C,1.700000*%
%TD*%
%TA.AperFunction,SMDPad,CuDef*%
%ADD25R,1.300000X0.300000*%
%TD*%
%TA.AperFunction,SMDPad,CuDef*%
%ADD26R,2.200000X1.800000*%
%TD*%
%TA.AperFunction,SMDPad,CuDef*%
%ADD27RoundRect,0.150000X-0.825000X-0.150000X0.825000X-0.150000X0.825000X0.150000X-0.825000X0.150000X0*%
%TD*%
%TA.AperFunction,SMDPad,CuDef*%
%ADD28RoundRect,0.140000X0.170000X-0.140000X0.170000X0.140000X-0.170000X0.140000X-0.170000X-0.140000X0*%
%TD*%
%TA.AperFunction,SMDPad,CuDef*%
%ADD29RoundRect,0.250000X-0.250000X-0.475000X0.250000X-0.475000X0.250000X0.475000X-0.250000X0.475000X0*%
%TD*%
%TA.AperFunction,SMDPad,CuDef*%
%ADD30RoundRect,0.250000X-1.500000X-1.000000X1.500000X-1.000000X1.500000X1.000000X-1.500000X1.000000X0*%
%TD*%
%TA.AperFunction,SMDPad,CuDef*%
%ADD31RoundRect,0.150000X-0.587500X-0.150000X0.587500X-0.150000X0.587500X0.150000X-0.587500X0.150000X0*%
%TD*%
%TA.AperFunction,SMDPad,CuDef*%
%ADD32RoundRect,0.100000X0.100000X-0.637500X0.100000X0.637500X-0.100000X0.637500X-0.100000X-0.637500X0*%
%TD*%
%TA.AperFunction,ComponentPad*%
%ADD33RoundRect,0.250000X-1.050000X-1.050000X1.050000X-1.050000X1.050000X1.050000X-1.050000X1.050000X0*%
%TD*%
%TA.AperFunction,ComponentPad*%
%ADD34C,2.600000*%
%TD*%
%TA.AperFunction,SMDPad,CuDef*%
%ADD35RoundRect,0.250000X-1.000000X-0.900000X1.000000X-0.900000X1.000000X0.900000X-1.000000X0.900000X0*%
%TD*%
%TA.AperFunction,SMDPad,CuDef*%
%ADD36RoundRect,0.250000X-0.312500X-0.625000X0.312500X-0.625000X0.312500X0.625000X-0.312500X0.625000X0*%
%TD*%
%TA.AperFunction,SMDPad,CuDef*%
%ADD37RoundRect,0.250000X-1.000000X-0.650000X1.000000X-0.650000X1.000000X0.650000X-1.000000X0.650000X0*%
%TD*%
%TA.AperFunction,ComponentPad*%
%ADD38C,0.700000*%
%TD*%
%TA.AperFunction,ComponentPad*%
%ADD39O,0.900000X2.400000*%
%TD*%
%TA.AperFunction,ComponentPad*%
%ADD40O,0.900000X1.700000*%
%TD*%
%TA.AperFunction,SMDPad,CuDef*%
%ADD41RoundRect,0.140000X-0.410000X-0.210000X0.410000X-0.210000X0.410000X0.210000X-0.410000X0.210000X0*%
%TD*%
%TA.AperFunction,SMDPad,CuDef*%
%ADD42RoundRect,0.140000X-0.210000X-0.410000X0.210000X-0.410000X0.210000X0.410000X-0.210000X0.410000X0*%
%TD*%
%TA.AperFunction,SMDPad,CuDef*%
%ADD43RoundRect,0.200000X-0.300000X-0.300000X0.300000X-0.300000X0.300000X0.300000X-0.300000X0.300000X0*%
%TD*%
%TA.AperFunction,SMDPad,CuDef*%
%ADD44RoundRect,0.200000X0.300000X-0.300000X0.300000X0.300000X-0.300000X0.300000X-0.300000X-0.300000X0*%
%TD*%
%TA.AperFunction,SMDPad,CuDef*%
%ADD45RoundRect,0.112500X-0.350000X-0.112500X0.350000X-0.112500X0.350000X0.112500X-0.350000X0.112500X0*%
%TD*%
%TA.AperFunction,SMDPad,CuDef*%
%ADD46RoundRect,0.062500X-0.365000X-0.062500X0.365000X-0.062500X0.365000X0.062500X-0.365000X0.062500X0*%
%TD*%
%TA.AperFunction,SMDPad,CuDef*%
%ADD47RoundRect,0.062500X-0.062500X-0.365000X0.062500X-0.365000X0.062500X0.365000X-0.062500X0.365000X0*%
%TD*%
%TA.AperFunction,HeatsinkPad*%
%ADD48C,0.600000*%
%TD*%
%TA.AperFunction,HeatsinkPad*%
%ADD49R,2.140000X2.140000*%
%TD*%
%TA.AperFunction,SMDPad,CuDef*%
%ADD50R,1.550000X0.600000*%
%TD*%
%TA.AperFunction,ComponentPad*%
%ADD51C,0.600000*%
%TD*%
%TA.AperFunction,SMDPad,CuDef*%
%ADD52R,2.950000X4.900000*%
%TD*%
%TA.AperFunction,ComponentPad*%
%ADD53R,1.500000X1.500000*%
%TD*%
%TA.AperFunction,ComponentPad*%
%ADD54C,1.500000*%
%TD*%
%TA.AperFunction,SMDPad,CuDef*%
%ADD55RoundRect,0.087500X-0.662500X-0.087500X0.662500X-0.087500X0.662500X0.087500X-0.662500X0.087500X0*%
%TD*%
%TA.AperFunction,ViaPad*%
%ADD56C,0.600000*%
%TD*%
%TA.AperFunction,Conductor*%
%ADD57C,0.600000*%
%TD*%
%TA.AperFunction,Conductor*%
%ADD58C,0.200000*%
%TD*%
%TA.AperFunction,Conductor*%
%ADD59C,0.300000*%
%TD*%
%TA.AperFunction,Conductor*%
%ADD60C,0.299800*%
%TD*%
%TA.AperFunction,Conductor*%
%ADD61C,0.200200*%
%TD*%
%TA.AperFunction,Conductor*%
%ADD62C,0.560800*%
%TD*%
%TA.AperFunction,Conductor*%
%ADD63C,0.540800*%
%TD*%
%TA.AperFunction,Conductor*%
%ADD64C,0.250000*%
%TD*%
%TA.AperFunction,Conductor*%
%ADD65C,0.400600*%
%TD*%
%TA.AperFunction,Conductor*%
%ADD66C,0.250200*%
%TD*%
G04 APERTURE END LIST*
D10*
%TO.P,C19,1*%
%TO.N,3V8_CELL*%
X181520000Y-118000000D03*
%TO.P,C19,2*%
%TO.N,GND*%
X182480000Y-118000000D03*
%TD*%
D11*
%TO.P,J5,1*%
%TO.N,3V3*%
X194200000Y-97540000D03*
%TO.P,J5,2*%
%TO.N,5V_RAIL*%
X194200000Y-94460000D03*
%TO.P,J5,3*%
%TO.N,SDA1*%
X194600000Y-97540000D03*
%TO.P,J5,4*%
%TO.N,5V_RAIL*%
X194600000Y-94460000D03*
%TO.P,J5,5*%
%TO.N,SCL1*%
X195000000Y-97540000D03*
%TO.P,J5,6*%
%TO.N,GND*%
X195000000Y-94460000D03*
%TO.P,J5,7*%
%TO.N,GPIO4_DHT22*%
X195400000Y-97540000D03*
%TO.P,J5,8*%
%TO.N,UART_TX_3V3*%
X195400000Y-94460000D03*
%TO.P,J5,9*%
%TO.N,GND*%
X195800000Y-97540000D03*
%TO.P,J5,10*%
%TO.N,UART_RX_3V3*%
X195800000Y-94460000D03*
%TO.P,J5,11*%
%TO.N,CELL_EN*%
X196200000Y-97540000D03*
%TO.P,J5,12*%
%TO.N,CHG_STAT1*%
X196200000Y-94460000D03*
%TO.P,J5,13*%
%TO.N,CELL_NET_STATUS*%
X196600000Y-97540000D03*
%TO.P,J5,14*%
%TO.N,GND*%
X196600000Y-94460000D03*
%TO.P,J5,15*%
%TO.N,CELL_PWRKEY*%
X197000000Y-97540000D03*
%TO.P,J5,16*%
%TO.N,CELL_RESET*%
X197000000Y-94460000D03*
%TO.P,J5,17*%
%TO.N,3V3*%
X197400000Y-97540000D03*
%TO.P,J5,18*%
%TO.N,CELL_STATUS*%
X197400000Y-94460000D03*
%TO.P,J5,19*%
%TO.N,SPI0_MOSI*%
X197800000Y-97540000D03*
%TO.P,J5,20*%
%TO.N,GND*%
X197800000Y-94460000D03*
%TO.P,J5,21*%
%TO.N,SPI0_MISO*%
X198200000Y-97540000D03*
%TO.P,J5,22*%
%TO.N,GPIO25_VSYNC*%
X198200000Y-94460000D03*
%TO.P,J5,23*%
%TO.N,SPI0_SCLK*%
X198600000Y-97540000D03*
%TO.P,J5,24*%
%TO.N,SPI0_CE0*%
X198600000Y-94460000D03*
%TO.P,J5,25*%
%TO.N,GND*%
X199000000Y-97540000D03*
%TO.P,J5,26*%
%TO.N,CHG_STAT2*%
X199000000Y-94460000D03*
%TO.P,J5,27*%
%TO.N,ANEMO_UART_TX*%
X199400000Y-97540000D03*
%TO.P,J5,28*%
%TO.N,ANEMO_UART_RX*%
X199400000Y-94460000D03*
%TO.P,J5,29*%
%TO.N,SHIFTER_OE*%
X199800000Y-97540000D03*
%TO.P,J5,30*%
%TO.N,GND*%
X199800000Y-94460000D03*
%TO.P,J5,31*%
%TO.N,ANEMO_DE*%
X200200000Y-97540000D03*
%TO.P,J5,32*%
%TO.N,DBG_TX*%
X200200000Y-94460000D03*
%TO.P,J5,33*%
%TO.N,DBG_RX*%
X200600000Y-97540000D03*
%TO.P,J5,34*%
%TO.N,GND*%
X200600000Y-94460000D03*
%TO.P,J5,35*%
%TO.N,unconnected-(J5-Pad35)*%
X201000000Y-97540000D03*
%TO.P,J5,36*%
%TO.N,USB_CMSN_DP*%
X201000000Y-94460000D03*
%TO.P,J5,37*%
%TO.N,USB_CMSN_DM*%
X201400000Y-97540000D03*
%TO.P,J5,38*%
%TO.N,USB_DP*%
X201400000Y-94460000D03*
%TO.P,J5,39*%
%TO.N,GND*%
X201800000Y-97540000D03*
%TO.P,J5,40*%
%TO.N,USB_DM*%
X201800000Y-94460000D03*
%TD*%
D12*
%TO.P,R22,1*%
%TO.N,CHG_VREF*%
X123490000Y-100000000D03*
%TO.P,R22,2*%
%TO.N,CHG_TS*%
X124510000Y-100000000D03*
%TD*%
D13*
%TO.P,C3,1*%
%TO.N,VBAT*%
X154525000Y-102000000D03*
%TO.P,C3,2*%
%TO.N,GND*%
X157475000Y-102000000D03*
%TD*%
D10*
%TO.P,C28,1*%
%TO.N,3V3*%
X149520000Y-148000000D03*
%TO.P,C28,2*%
%TO.N,GND*%
X150480000Y-148000000D03*
%TD*%
D13*
%TO.P,C4,1*%
%TO.N,VBAT*%
X123525000Y-108000000D03*
%TO.P,C4,2*%
%TO.N,GND*%
X126475000Y-108000000D03*
%TD*%
D14*
%TO.P,J7,1*%
%TO.N,N$1*%
X212755000Y-155380000D03*
%TO.P,J7,2*%
%TO.N,N$2*%
X210215000Y-155380000D03*
%TO.P,J7,3*%
%TO.N,N$3*%
X207675000Y-155380000D03*
%TO.P,J7,5*%
%TO.N,GND*%
X214025000Y-155380000D03*
%TO.P,J7,6*%
%TO.N,unconnected-(J7-Pad6)*%
X211485000Y-155380000D03*
%TO.P,J7,7*%
%TO.N,N$4*%
X208945000Y-155380000D03*
D15*
%TO.P,J7,SH*%
%TO.N,GND*%
X203730000Y-157550000D03*
X203730000Y-159550000D03*
D16*
X203895000Y-169110000D03*
D17*
X207465000Y-168530000D03*
X212545000Y-168530000D03*
D16*
X216105000Y-169110000D03*
D15*
X216270000Y-157550000D03*
X216270000Y-159550000D03*
%TD*%
D10*
%TO.P,C36,1*%
%TO.N,BUCK_VCC*%
X131520000Y-117000000D03*
%TO.P,C36,2*%
%TO.N,GND*%
X132480000Y-117000000D03*
%TD*%
%TO.P,C33,1*%
%TO.N,CHG_REGN*%
X131520000Y-101000000D03*
%TO.P,C33,2*%
%TO.N,GND*%
X132480000Y-101000000D03*
%TD*%
D18*
%TO.P,L2,1*%
%TO.N,BUCK_SW*%
X149175000Y-110000000D03*
%TO.P,L2,2*%
%TO.N,5V_RAIL*%
X154825000Y-110000000D03*
%TD*%
D10*
%TO.P,C34,1*%
%TO.N,BAT_SRP*%
X139520000Y-102000000D03*
%TO.P,C34,2*%
%TO.N,VBAT*%
X140480000Y-102000000D03*
%TD*%
D19*
%TO.P,R11,1*%
%TO.N,SCL1*%
X155000000Y-152510000D03*
%TO.P,R11,2*%
%TO.N,3V3*%
X155000000Y-151490000D03*
%TD*%
D10*
%TO.P,C5,1*%
%TO.N,VBAT*%
X124520000Y-113000000D03*
%TO.P,C5,2*%
%TO.N,GND*%
X125480000Y-113000000D03*
%TD*%
D20*
%TO.P,J6,1*%
%TO.N,ANT_MATCH*%
X176475000Y-125000000D03*
D21*
%TO.P,J6,2*%
%TO.N,GND*%
X178000000Y-123525000D03*
X178000000Y-126475000D03*
%TD*%
D12*
%TO.P,R20,1*%
%TO.N,VBAT*%
X135490000Y-87000000D03*
%TO.P,R20,2*%
%TO.N,CHG_VFB*%
X136510000Y-87000000D03*
%TD*%
%TO.P,R23,1*%
%TO.N,CHG_TS*%
X126490000Y-100000000D03*
%TO.P,R23,2*%
%TO.N,GND*%
X127510000Y-100000000D03*
%TD*%
D22*
%TO.P,U2,1*%
%TO.N,5V_RAIL*%
X140862500Y-125050000D03*
%TO.P,U2,2*%
%TO.N,GND*%
X140862500Y-126000000D03*
%TO.P,U2,3*%
%TO.N,CELL_EN*%
X140862500Y-126950000D03*
%TO.P,U2,4*%
%TO.N,unconnected-(U2-Pad4)*%
X143137500Y-126950000D03*
%TO.P,U2,5*%
%TO.N,3V8_CELL*%
X143137500Y-125050000D03*
%TD*%
D23*
%TO.P,J11,1*%
%TO.N,3V3*%
X170000000Y-164000000D03*
D24*
%TO.P,J11,2*%
%TO.N,DBG_TX*%
X170000000Y-166540000D03*
%TO.P,J11,3*%
%TO.N,DBG_RX*%
X170000000Y-169080000D03*
%TO.P,J11,4*%
%TO.N,GND*%
X170000000Y-171620000D03*
%TD*%
D18*
%TO.P,L1,1*%
%TO.N,MPPT_SW*%
X153175000Y-92000000D03*
%TO.P,L1,2*%
%TO.N,BAT_SRP*%
X158825000Y-92000000D03*
%TD*%
D25*
%TO.P,J8,1*%
%TO.N,GND*%
X108850000Y-142750000D03*
%TO.P,J8,2*%
%TO.N,SPI0_CE0*%
X108850000Y-143250000D03*
%TO.P,J8,3*%
%TO.N,SPI0_MOSI*%
X108850000Y-143750000D03*
%TO.P,J8,4*%
%TO.N,SPI0_MISO*%
X108850000Y-144250000D03*
%TO.P,J8,5*%
%TO.N,SPI0_SCLK*%
X108850000Y-144750000D03*
%TO.P,J8,6*%
%TO.N,GPIO25_VSYNC*%
X108850000Y-145250000D03*
%TO.P,J8,7*%
%TO.N,unconnected-(J8-Pad7)*%
X108850000Y-145750000D03*
%TO.P,J8,8*%
%TO.N,SDA1*%
X108850000Y-146250000D03*
%TO.P,J8,9*%
%TO.N,SCL1*%
X108850000Y-146750000D03*
%TO.P,J8,10*%
%TO.N,N$5*%
X108850000Y-147250000D03*
%TO.P,J8,11*%
%TO.N,N$6*%
X108850000Y-147750000D03*
%TO.P,J8,12*%
%TO.N,GND*%
X108850000Y-148250000D03*
%TO.P,J8,13*%
%TO.N,3V3*%
X108850000Y-148750000D03*
%TO.P,J8,14*%
X108850000Y-149250000D03*
D26*
%TO.P,J8,MP*%
%TO.N,N/C*%
X105600000Y-140850000D03*
X105600000Y-151150000D03*
%TD*%
D27*
%TO.P,U7,1*%
%TO.N,ANEMO_UART_RX*%
X149525000Y-166095000D03*
%TO.P,U7,2*%
%TO.N,ANEMO_DE*%
X149525000Y-167365000D03*
%TO.P,U7,3*%
X149525000Y-168635000D03*
%TO.P,U7,4*%
%TO.N,ANEMO_UART_TX*%
X149525000Y-169905000D03*
%TO.P,U7,5*%
%TO.N,GND*%
X154475000Y-169905000D03*
%TO.P,U7,6*%
%TO.N,ANEMO_RS485_A*%
X154475000Y-168635000D03*
%TO.P,U7,7*%
%TO.N,ANEMO_RS485_B*%
X154475000Y-167365000D03*
%TO.P,U7,8*%
%TO.N,3V3*%
X154475000Y-166095000D03*
%TD*%
D10*
%TO.P,C2,1*%
%TO.N,CHG_BTST*%
X147520000Y-87000000D03*
%TO.P,C2,2*%
%TO.N,MPPT_SW*%
X148480000Y-87000000D03*
%TD*%
%TO.P,C18,1*%
%TO.N,3V8_CELL*%
X177520000Y-118000000D03*
%TO.P,C18,2*%
%TO.N,GND*%
X178480000Y-118000000D03*
%TD*%
D12*
%TO.P,R13,1*%
%TO.N,N$8*%
X187490000Y-96000000D03*
%TO.P,R13,2*%
%TO.N,GND*%
X188510000Y-96000000D03*
%TD*%
D28*
%TO.P,C17,1*%
%TO.N,5V_RAIL*%
X214000000Y-96480000D03*
%TO.P,C17,2*%
%TO.N,GND*%
X214000000Y-95520000D03*
%TD*%
D10*
%TO.P,C22,1*%
%TO.N,ANT_MATCH*%
X189520000Y-112000000D03*
%TO.P,C22,2*%
%TO.N,GND*%
X190480000Y-112000000D03*
%TD*%
%TO.P,C14,1*%
%TO.N,5V_RAIL*%
X185520000Y-108000000D03*
%TO.P,C14,2*%
%TO.N,GND*%
X186480000Y-108000000D03*
%TD*%
%TO.P,C30,1*%
%TO.N,3V3*%
X151520000Y-173000000D03*
%TO.P,C30,2*%
%TO.N,GND*%
X152480000Y-173000000D03*
%TD*%
D29*
%TO.P,C8,1*%
%TO.N,5V_RAIL*%
X162050000Y-119000000D03*
%TO.P,C8,2*%
%TO.N,GND*%
X163950000Y-119000000D03*
%TD*%
D19*
%TO.P,R8,1*%
%TO.N,N$6*%
X155000000Y-140510000D03*
%TO.P,R8,2*%
%TO.N,3V3*%
X155000000Y-139490000D03*
%TD*%
D30*
%TO.P,C7,1*%
%TO.N,5V_RAIL*%
X159750000Y-112000000D03*
%TO.P,C7,2*%
%TO.N,GND*%
X166250000Y-112000000D03*
%TD*%
D19*
%TO.P,R3,1*%
%TO.N,BUCK_FB*%
X170000000Y-112510000D03*
%TO.P,R3,2*%
%TO.N,GND*%
X170000000Y-111490000D03*
%TD*%
D12*
%TO.P,R19,1*%
%TO.N,CHG_MPPSET*%
X132490000Y-87000000D03*
%TO.P,R19,2*%
%TO.N,GND*%
X133510000Y-87000000D03*
%TD*%
D31*
%TO.P,Q2,1*%
%TO.N,CHG_LODRV*%
X143062500Y-94050000D03*
%TO.P,Q2,2*%
%TO.N,GND*%
X143062500Y-95950000D03*
%TO.P,Q2,3*%
%TO.N,MPPT_SW*%
X144937500Y-95000000D03*
%TD*%
D10*
%TO.P,C27,1*%
%TO.N,3V3*%
X144520000Y-148000000D03*
%TO.P,C27,2*%
%TO.N,GND*%
X145480000Y-148000000D03*
%TD*%
%TO.P,C12,1*%
%TO.N,5V_RAIL*%
X141520000Y-132000000D03*
%TO.P,C12,2*%
%TO.N,GND*%
X142480000Y-132000000D03*
%TD*%
D12*
%TO.P,R5,1*%
%TO.N,ANT_IN*%
X169490000Y-130000000D03*
%TO.P,R5,2*%
%TO.N,ANT_MATCH*%
X170510000Y-130000000D03*
%TD*%
D10*
%TO.P,C6,1*%
%TO.N,BUCK_BOOT*%
X143520000Y-116000000D03*
%TO.P,C6,2*%
%TO.N,BUCK_SW*%
X144480000Y-116000000D03*
%TD*%
%TO.P,C26,1*%
%TO.N,3V3*%
X134520000Y-148000000D03*
%TO.P,C26,2*%
%TO.N,GND*%
X135480000Y-148000000D03*
%TD*%
D19*
%TO.P,R16,1*%
%TO.N,ANEMO_RS485_B*%
X160000000Y-174510000D03*
%TO.P,R16,2*%
%TO.N,GND*%
X160000000Y-173490000D03*
%TD*%
D32*
%TO.P,U4,1*%
%TO.N,CELL_TX_1V8*%
X207075000Y-132862500D03*
%TO.P,U4,2*%
%TO.N,VDD_EXT_1V8*%
X207725000Y-132862500D03*
%TO.P,U4,3*%
%TO.N,CELL_RX_1V8*%
X208375000Y-132862500D03*
%TO.P,U4,4*%
%TO.N,CELL_PWRKEY_1V8*%
X209025000Y-132862500D03*
%TO.P,U4,5*%
%TO.N,CELL_RESET_1V8*%
X209675000Y-132862500D03*
%TO.P,U4,6*%
%TO.N,CELL_STATUS_1V8*%
X210325000Y-132862500D03*
%TO.P,U4,7*%
%TO.N,CELL_NET_1V8*%
X210975000Y-132862500D03*
%TO.P,U4,8*%
%TO.N,unconnected-(U4-Pad8)*%
X211625000Y-132862500D03*
%TO.P,U4,9*%
%TO.N,unconnected-(U4-Pad9)*%
X212275000Y-132862500D03*
%TO.P,U4,10*%
%TO.N,SHIFTER_OE*%
X212925000Y-132862500D03*
%TO.P,U4,11*%
%TO.N,GND*%
X212925000Y-127137500D03*
%TO.P,U4,12*%
%TO.N,unconnected-(U4-Pad12)*%
X212275000Y-127137500D03*
%TO.P,U4,13*%
%TO.N,unconnected-(U4-Pad13)*%
X211625000Y-127137500D03*
%TO.P,U4,14*%
%TO.N,CELL_NET_STATUS*%
X210975000Y-127137500D03*
%TO.P,U4,15*%
%TO.N,CELL_STATUS*%
X210325000Y-127137500D03*
%TO.P,U4,16*%
%TO.N,CELL_RESET*%
X209675000Y-127137500D03*
%TO.P,U4,17*%
%TO.N,CELL_PWRKEY*%
X209025000Y-127137500D03*
%TO.P,U4,18*%
%TO.N,UART_TX_3V3*%
X208375000Y-127137500D03*
%TO.P,U4,19*%
%TO.N,3V3*%
X207725000Y-127137500D03*
%TO.P,U4,20*%
%TO.N,UART_RX_3V3*%
X207075000Y-127137500D03*
%TD*%
D10*
%TO.P,C21,1*%
%TO.N,ANT_IN*%
X171520000Y-120000000D03*
%TO.P,C21,2*%
%TO.N,GND*%
X172480000Y-120000000D03*
%TD*%
%TO.P,C13,1*%
%TO.N,3V8_CELL*%
X147520000Y-132000000D03*
%TO.P,C13,2*%
%TO.N,GND*%
X148480000Y-132000000D03*
%TD*%
%TO.P,C11,1*%
%TO.N,3V3*%
X130520000Y-132000000D03*
%TO.P,C11,2*%
%TO.N,GND*%
X131480000Y-132000000D03*
%TD*%
D19*
%TO.P,R6,1*%
%TO.N,SHIFTER_OE*%
X182000000Y-155510000D03*
%TO.P,R6,2*%
%TO.N,GND*%
X182000000Y-154490000D03*
%TD*%
%TO.P,R15,1*%
%TO.N,3V3*%
X160000000Y-170510000D03*
%TO.P,R15,2*%
%TO.N,ANEMO_RS485_A*%
X160000000Y-169490000D03*
%TD*%
D10*
%TO.P,C25,1*%
%TO.N,3V3*%
X129520000Y-148000000D03*
%TO.P,C25,2*%
%TO.N,GND*%
X130480000Y-148000000D03*
%TD*%
D12*
%TO.P,R12,1*%
%TO.N,N$7*%
X171490000Y-96000000D03*
%TO.P,R12,2*%
%TO.N,GND*%
X172510000Y-96000000D03*
%TD*%
D33*
%TO.P,J1,1*%
%TO.N,PV_RAW*%
X110000000Y-92000000D03*
D34*
%TO.P,J1,2*%
%TO.N,GND*%
X115080000Y-92000000D03*
%TD*%
D35*
%TO.P,D3,1*%
%TO.N,ANEMO_V_SENSOR*%
X125850000Y-174000000D03*
%TO.P,D3,2*%
%TO.N,GND*%
X130150000Y-174000000D03*
%TD*%
D19*
%TO.P,R14,1*%
%TO.N,ANEMO_RS485_A*%
X160000000Y-166510000D03*
%TO.P,R14,2*%
%TO.N,ANEMO_RS485_B*%
X160000000Y-165490000D03*
%TD*%
D10*
%TO.P,C35,1*%
%TO.N,VBAT*%
X135520000Y-105000000D03*
%TO.P,C35,2*%
%TO.N,GND*%
X136480000Y-105000000D03*
%TD*%
%TO.P,C10,1*%
%TO.N,5V_RAIL*%
X124520000Y-132000000D03*
%TO.P,C10,2*%
%TO.N,GND*%
X125480000Y-132000000D03*
%TD*%
D22*
%TO.P,U1,1*%
%TO.N,5V_RAIL*%
X123862500Y-125050000D03*
%TO.P,U1,2*%
%TO.N,GND*%
X123862500Y-126000000D03*
%TO.P,U1,3*%
%TO.N,5V_RAIL*%
X123862500Y-126950000D03*
%TO.P,U1,4*%
%TO.N,unconnected-(U1-Pad4)*%
X126137500Y-126950000D03*
%TO.P,U1,5*%
%TO.N,3V3*%
X126137500Y-125050000D03*
%TD*%
D13*
%TO.P,C1,1*%
%TO.N,PV_IN*%
X120525000Y-92000000D03*
%TO.P,C1,2*%
%TO.N,GND*%
X123475000Y-92000000D03*
%TD*%
D12*
%TO.P,R24,1*%
%TO.N,3V3*%
X123490000Y-103000000D03*
%TO.P,R24,2*%
%TO.N,CHG_STAT1*%
X124510000Y-103000000D03*
%TD*%
%TO.P,R21,1*%
%TO.N,CHG_VFB*%
X138490000Y-87000000D03*
%TO.P,R21,2*%
%TO.N,GND*%
X139510000Y-87000000D03*
%TD*%
D10*
%TO.P,C16,1*%
%TO.N,5V_RAIL*%
X209520000Y-108000000D03*
%TO.P,C16,2*%
%TO.N,GND*%
X210480000Y-108000000D03*
%TD*%
D36*
%TO.P,F1,1*%
%TO.N,VBAT*%
X131537500Y-168000000D03*
%TO.P,F1,2*%
%TO.N,ANEMO_V_SENSOR*%
X134462500Y-168000000D03*
%TD*%
D19*
%TO.P,R7,1*%
%TO.N,N$5*%
X186000000Y-155510000D03*
%TO.P,R7,2*%
%TO.N,3V3*%
X186000000Y-154490000D03*
%TD*%
D10*
%TO.P,C24,1*%
%TO.N,3V3*%
X213520000Y-120000000D03*
%TO.P,C24,2*%
%TO.N,GND*%
X214480000Y-120000000D03*
%TD*%
D31*
%TO.P,Q1,1*%
%TO.N,CHG_HIDRV*%
X143062500Y-89050000D03*
%TO.P,Q1,2*%
%TO.N,MPPT_SW*%
X143062500Y-90950000D03*
%TO.P,Q1,3*%
%TO.N,PV_IN*%
X144937500Y-90000000D03*
%TD*%
D10*
%TO.P,C23,1*%
%TO.N,VDD_EXT_1V8*%
X203520000Y-118000000D03*
%TO.P,C23,2*%
%TO.N,GND*%
X204480000Y-118000000D03*
%TD*%
D37*
%TO.P,D1,1*%
%TO.N,PV_IN*%
X120000000Y-87000000D03*
%TO.P,D1,2*%
%TO.N,PV_RAW*%
X124000000Y-87000000D03*
%TD*%
D38*
%TO.P,J12,A1*%
%TO.N,GND*%
X177000000Y-84000000D03*
%TO.P,J12,A4*%
%TO.N,unconnected-(J12-PadA4)*%
X177850000Y-84000000D03*
%TO.P,J12,A5*%
%TO.N,N$7*%
X178700000Y-84000000D03*
%TO.P,J12,A6*%
%TO.N,USB_CMSN_DP*%
X179550000Y-84000000D03*
%TO.P,J12,A7*%
%TO.N,USB_CMSN_DM*%
X180400000Y-84000000D03*
%TO.P,J12,A8*%
%TO.N,N/C*%
X181250000Y-84000000D03*
%TO.P,J12,A9*%
%TO.N,unconnected-(J12-PadA9)*%
X182100000Y-84000000D03*
%TO.P,J12,A12*%
%TO.N,GND*%
X182950000Y-84000000D03*
%TO.P,J12,B1*%
X182950000Y-85350000D03*
%TO.P,J12,B4*%
%TO.N,unconnected-(J12-PadB4)*%
X182100000Y-85350000D03*
%TO.P,J12,B5*%
%TO.N,N$8*%
X181250000Y-85350000D03*
%TO.P,J12,B6*%
%TO.N,USB_CMSN_DP*%
X180400000Y-85350000D03*
%TO.P,J12,B7*%
%TO.N,USB_CMSN_DM*%
X179550000Y-85350000D03*
%TO.P,J12,B8*%
%TO.N,N/C*%
X178700000Y-85350000D03*
%TO.P,J12,B9*%
%TO.N,unconnected-(J12-PadB9)*%
X177850000Y-85350000D03*
%TO.P,J12,B12*%
%TO.N,GND*%
X177000000Y-85350000D03*
D39*
%TO.P,J12,SH*%
X175650000Y-84980000D03*
D40*
X175650000Y-88360000D03*
D39*
X184300000Y-84980000D03*
D40*
X184300000Y-88360000D03*
%TD*%
D41*
%TO.P,U3,1*%
%TO.N,N/C*%
X182850000Y-128300000D03*
%TO.P,U3,2*%
X182850000Y-129400000D03*
%TO.P,U3,3*%
%TO.N,GND*%
X182850000Y-130500000D03*
%TO.P,U3,4*%
%TO.N,N/C*%
X182850000Y-131600000D03*
%TO.P,U3,5*%
X182850000Y-132700000D03*
%TO.P,U3,6*%
X182850000Y-133800000D03*
%TO.P,U3,7*%
X182850000Y-134900000D03*
%TO.P,U3,8*%
X182850000Y-136000000D03*
%TO.P,U3,9*%
%TO.N,USB_DP*%
X182850000Y-137100000D03*
%TO.P,U3,10*%
%TO.N,USB_DM*%
X182850000Y-138200000D03*
%TO.P,U3,11*%
%TO.N,N/C*%
X182850000Y-139900000D03*
%TO.P,U3,12*%
X182850000Y-141000000D03*
%TO.P,U3,13*%
X182850000Y-142100000D03*
%TO.P,U3,14*%
X182850000Y-143200000D03*
%TO.P,U3,15*%
%TO.N,CELL_PWRKEY_1V8*%
X182850000Y-144300000D03*
%TO.P,U3,16*%
%TO.N,N/C*%
X182850000Y-145400000D03*
%TO.P,U3,17*%
%TO.N,CELL_RESET_1V8*%
X182850000Y-146500000D03*
%TO.P,U3,18*%
%TO.N,N/C*%
X182850000Y-147600000D03*
D42*
%TO.P,U3,19*%
X184550000Y-149000000D03*
%TO.P,U3,20*%
%TO.N,CELL_STATUS_1V8*%
X185650000Y-149000000D03*
%TO.P,U3,21*%
%TO.N,CELL_NET_1V8*%
X186750000Y-149000000D03*
%TO.P,U3,22*%
%TO.N,N/C*%
X187850000Y-149000000D03*
%TO.P,U3,23*%
X188950000Y-149000000D03*
%TO.P,U3,24*%
X190050000Y-149000000D03*
%TO.P,U3,25*%
X192550000Y-149000000D03*
%TO.P,U3,26*%
X193650000Y-149000000D03*
%TO.P,U3,27*%
X194750000Y-149000000D03*
%TO.P,U3,28*%
X195850000Y-149000000D03*
%TO.P,U3,29*%
%TO.N,VDD_EXT_1V8*%
X196950000Y-149000000D03*
%TO.P,U3,30*%
%TO.N,N/C*%
X198050000Y-149000000D03*
%TO.P,U3,31*%
%TO.N,GND*%
X199150000Y-149000000D03*
D41*
%TO.P,U3,32*%
%TO.N,3V8_CELL*%
X201150000Y-147600000D03*
%TO.P,U3,33*%
X201150000Y-146500000D03*
%TO.P,U3,34*%
%TO.N,CELL_RX_1V8*%
X201150000Y-145400000D03*
%TO.P,U3,35*%
%TO.N,CELL_TX_1V8*%
X201150000Y-144300000D03*
%TO.P,U3,36*%
%TO.N,N/C*%
X201150000Y-143200000D03*
%TO.P,U3,37*%
X201150000Y-142100000D03*
%TO.P,U3,38*%
X201150000Y-141000000D03*
%TO.P,U3,39*%
X201150000Y-139900000D03*
%TO.P,U3,40*%
X201150000Y-138200000D03*
%TO.P,U3,41*%
X201150000Y-137100000D03*
%TO.P,U3,42*%
X201150000Y-136000000D03*
%TO.P,U3,43*%
%TO.N,N$1*%
X201150000Y-134900000D03*
%TO.P,U3,44*%
%TO.N,N$2*%
X201150000Y-133800000D03*
%TO.P,U3,45*%
%TO.N,N$4*%
X201150000Y-132700000D03*
%TO.P,U3,46*%
%TO.N,N$3*%
X201150000Y-131600000D03*
%TO.P,U3,47*%
%TO.N,N/C*%
X201150000Y-130500000D03*
%TO.P,U3,48*%
%TO.N,GND*%
X201150000Y-129400000D03*
%TO.P,U3,49*%
%TO.N,N/C*%
X201150000Y-128300000D03*
D42*
%TO.P,U3,50*%
%TO.N,GND*%
X199150000Y-127000000D03*
%TO.P,U3,51*%
%TO.N,N/C*%
X198050000Y-127000000D03*
%TO.P,U3,52*%
%TO.N,3V8_CELL*%
X196950000Y-127000000D03*
%TO.P,U3,53*%
X195850000Y-127000000D03*
%TO.P,U3,54*%
%TO.N,GND*%
X194750000Y-127000000D03*
%TO.P,U3,55*%
X193650000Y-127000000D03*
%TO.P,U3,56*%
%TO.N,N/C*%
X192550000Y-127000000D03*
%TO.P,U3,57*%
X190050000Y-127000000D03*
%TO.P,U3,58*%
%TO.N,GND*%
X188950000Y-127000000D03*
%TO.P,U3,59*%
X187850000Y-127000000D03*
%TO.P,U3,60*%
%TO.N,ANT_IN*%
X186750000Y-127000000D03*
%TO.P,U3,61*%
%TO.N,GND*%
X185650000Y-127000000D03*
%TO.P,U3,62*%
X184550000Y-127000000D03*
D43*
%TO.P,U3,63*%
%TO.N,N/C*%
X186050000Y-133750000D03*
%TO.P,U3,64*%
X186050000Y-135450000D03*
%TO.P,U3,65*%
X186050000Y-137150000D03*
%TO.P,U3,66*%
X186050000Y-138850000D03*
%TO.P,U3,67*%
%TO.N,GND*%
X186050000Y-140550000D03*
%TO.P,U3,68*%
X186050000Y-142250000D03*
D44*
%TO.P,U3,69*%
X189450000Y-145650000D03*
%TO.P,U3,70*%
X191150000Y-145650000D03*
%TO.P,U3,71*%
X192850000Y-145650000D03*
%TO.P,U3,72*%
X194550000Y-145650000D03*
D43*
%TO.P,U3,73*%
X197950000Y-142250000D03*
%TO.P,U3,74*%
X197950000Y-140550000D03*
%TO.P,U3,75*%
%TO.N,N/C*%
X197950000Y-138850000D03*
%TO.P,U3,76*%
X197950000Y-137150000D03*
%TO.P,U3,77*%
X197950000Y-135450000D03*
%TO.P,U3,78*%
X197950000Y-133750000D03*
D44*
%TO.P,U3,79*%
%TO.N,GND*%
X194550000Y-130350000D03*
%TO.P,U3,80*%
X192850000Y-130350000D03*
%TO.P,U3,81*%
X191150000Y-130350000D03*
%TO.P,U3,82*%
X189450000Y-130350000D03*
D43*
%TO.P,U3,83*%
%TO.N,N/C*%
X187750000Y-133750000D03*
%TO.P,U3,84*%
X187750000Y-135450000D03*
%TO.P,U3,85*%
X187750000Y-137150000D03*
%TO.P,U3,86*%
X187750000Y-138850000D03*
%TO.P,U3,87*%
X187750000Y-140550000D03*
%TO.P,U3,88*%
X187750000Y-142250000D03*
D44*
%TO.P,U3,89*%
%TO.N,GND*%
X189450000Y-143950000D03*
%TO.P,U3,90*%
X191150000Y-143950000D03*
%TO.P,U3,91*%
X192850000Y-143950000D03*
%TO.P,U3,92*%
%TO.N,N/C*%
X194550000Y-143950000D03*
D43*
%TO.P,U3,93*%
X196250000Y-142250000D03*
%TO.P,U3,94*%
X196250000Y-140550000D03*
%TO.P,U3,95*%
X196250000Y-138850000D03*
%TO.P,U3,96*%
X196250000Y-137150000D03*
%TO.P,U3,97*%
X196250000Y-135450000D03*
%TO.P,U3,98*%
X196250000Y-133750000D03*
D44*
%TO.P,U3,99*%
X194550000Y-132050000D03*
%TO.P,U3,100*%
%TO.N,GND*%
X192850000Y-132050000D03*
%TO.P,U3,101*%
X191150000Y-132050000D03*
%TO.P,U3,102*%
X189450000Y-132050000D03*
%TD*%
D19*
%TO.P,R9,1*%
%TO.N,GPIO4_DHT22*%
X155000000Y-144510000D03*
%TO.P,R9,2*%
%TO.N,3V3*%
X155000000Y-143490000D03*
%TD*%
D10*
%TO.P,C31,1*%
%TO.N,CHG_VCC*%
X121520000Y-99000000D03*
%TO.P,C31,2*%
%TO.N,GND*%
X122480000Y-99000000D03*
%TD*%
D45*
%TO.P,D4,1*%
%TO.N,CHG_REGN*%
X147112500Y-91350000D03*
%TO.P,D4,2*%
%TO.N,N/C*%
X147112500Y-92650000D03*
%TO.P,D4,3*%
%TO.N,CHG_BTST*%
X148887500Y-92000000D03*
%TD*%
D19*
%TO.P,R10,1*%
%TO.N,SDA1*%
X155000000Y-148510000D03*
%TO.P,R10,2*%
%TO.N,3V3*%
X155000000Y-147490000D03*
%TD*%
D23*
%TO.P,J9,1*%
%TO.N,3V3*%
X125000000Y-140000000D03*
D24*
%TO.P,J9,2*%
%TO.N,GND*%
X125000000Y-142540000D03*
%TO.P,J9,3*%
%TO.N,SCL1*%
X125000000Y-145080000D03*
%TO.P,J9,4*%
%TO.N,SDA1*%
X125000000Y-147620000D03*
%TO.P,J9,5*%
%TO.N,unconnected-(J9-Pad5)*%
X125000000Y-150160000D03*
%TD*%
D28*
%TO.P,C29,1*%
%TO.N,RAIN_AO*%
X150000000Y-158480000D03*
%TO.P,C29,2*%
%TO.N,GND*%
X150000000Y-157520000D03*
%TD*%
D10*
%TO.P,C15,1*%
%TO.N,5V_RAIL*%
X197520000Y-108000000D03*
%TO.P,C15,2*%
%TO.N,GND*%
X198480000Y-108000000D03*
%TD*%
D31*
%TO.P,D2,1*%
%TO.N,ANEMO_RS485_A*%
X139062500Y-167050000D03*
%TO.P,D2,2*%
%TO.N,GND*%
X139062500Y-168950000D03*
%TO.P,D2,3*%
%TO.N,ANEMO_RS485_B*%
X140937500Y-168000000D03*
%TD*%
D12*
%TO.P,R17,1*%
%TO.N,PV_IN*%
X121490000Y-96000000D03*
%TO.P,R17,2*%
%TO.N,CHG_VCC*%
X122510000Y-96000000D03*
%TD*%
D19*
%TO.P,R2,1*%
%TO.N,5V_RAIL*%
X170000000Y-108510000D03*
%TO.P,R2,2*%
%TO.N,BUCK_FB*%
X170000000Y-107490000D03*
%TD*%
D36*
%TO.P,R1,1*%
%TO.N,BAT_SRP*%
X144537500Y-102000000D03*
%TO.P,R1,2*%
%TO.N,VBAT*%
X147462500Y-102000000D03*
%TD*%
D46*
%TO.P,U8,1*%
%TO.N,CHG_VCC*%
X132302500Y-93250000D03*
%TO.P,U8,2*%
%TO.N,CHG_MPPSET*%
X132302500Y-93750000D03*
%TO.P,U8,3*%
%TO.N,CHG_STAT1*%
X132302500Y-94250000D03*
%TO.P,U8,4*%
%TO.N,CHG_TS*%
X132302500Y-94750000D03*
D47*
%TO.P,U8,5*%
%TO.N,CHG_STAT2*%
X133250000Y-95697500D03*
%TO.P,U8,6*%
%TO.N,CHG_VREF*%
X133750000Y-95697500D03*
%TO.P,U8,7*%
X134250000Y-95697500D03*
%TO.P,U8,8*%
%TO.N,CHG_VFB*%
X134750000Y-95697500D03*
D46*
%TO.P,U8,9*%
%TO.N,VBAT*%
X135697500Y-94750000D03*
%TO.P,U8,10*%
%TO.N,BAT_SRP*%
X135697500Y-94250000D03*
%TO.P,U8,11*%
%TO.N,GND*%
X135697500Y-93750000D03*
%TO.P,U8,12*%
%TO.N,CHG_REGN*%
X135697500Y-93250000D03*
D47*
%TO.P,U8,13*%
%TO.N,CHG_LODRV*%
X134750000Y-92302500D03*
%TO.P,U8,14*%
%TO.N,MPPT_SW*%
X134250000Y-92302500D03*
%TO.P,U8,15*%
%TO.N,CHG_HIDRV*%
X133750000Y-92302500D03*
%TO.P,U8,16*%
%TO.N,CHG_BTST*%
X133250000Y-92302500D03*
D48*
%TO.P,U8,17*%
%TO.N,GND*%
X133500000Y-93500000D03*
X133500000Y-94500000D03*
D49*
X134000000Y-94000000D03*
D48*
X134500000Y-93500000D03*
X134500000Y-94500000D03*
%TD*%
D23*
%TO.P,J13,1*%
%TO.N,ANEMO_V_SENSOR*%
X140000000Y-176000000D03*
D24*
%TO.P,J13,2*%
%TO.N,GND*%
X142540000Y-176000000D03*
%TO.P,J13,3*%
%TO.N,ANEMO_RS485_A*%
X145080000Y-176000000D03*
%TO.P,J13,4*%
%TO.N,ANEMO_RS485_B*%
X147620000Y-176000000D03*
%TO.P,J13,5*%
%TO.N,GND*%
X150160000Y-176000000D03*
%TD*%
D10*
%TO.P,C20,1*%
%TO.N,VDD_EXT_1V8*%
X185520000Y-118000000D03*
%TO.P,C20,2*%
%TO.N,GND*%
X186480000Y-118000000D03*
%TD*%
%TO.P,C32,1*%
%TO.N,CHG_VREF*%
X128520000Y-101000000D03*
%TO.P,C32,2*%
%TO.N,GND*%
X129480000Y-101000000D03*
%TD*%
%TO.P,C9,1*%
%TO.N,5V_RAIL*%
X149520000Y-118000000D03*
%TO.P,C9,2*%
%TO.N,GND*%
X150480000Y-118000000D03*
%TD*%
D23*
%TO.P,J10,1*%
%TO.N,3V3*%
X140000000Y-140000000D03*
D24*
%TO.P,J10,2*%
%TO.N,GND*%
X140000000Y-142540000D03*
%TO.P,J10,3*%
%TO.N,RAIN_AO*%
X140000000Y-145080000D03*
%TO.P,J10,4*%
%TO.N,unconnected-(J10-Pad4)*%
X140000000Y-147620000D03*
%TD*%
D12*
%TO.P,R25,1*%
%TO.N,3V3*%
X126490000Y-103000000D03*
%TO.P,R25,2*%
%TO.N,CHG_STAT2*%
X127510000Y-103000000D03*
%TD*%
D50*
%TO.P,U9,1*%
%TO.N,GND*%
X135300000Y-108095000D03*
%TO.P,U9,2*%
%TO.N,VBAT*%
X135300000Y-109365000D03*
%TO.P,U9,3*%
X135300000Y-110635000D03*
%TO.P,U9,4*%
%TO.N,unconnected-(U9-Pad4)*%
X135300000Y-111905000D03*
%TO.P,U9,5*%
%TO.N,BUCK_FB*%
X140700000Y-111905000D03*
%TO.P,U9,6*%
%TO.N,BUCK_VCC*%
X140700000Y-110635000D03*
%TO.P,U9,7*%
%TO.N,BUCK_BOOT*%
X140700000Y-109365000D03*
%TO.P,U9,8*%
%TO.N,BUCK_SW*%
X140700000Y-108095000D03*
D51*
%TO.P,U9,9*%
%TO.N,GND*%
X137350000Y-108050000D03*
X137350000Y-109350000D03*
X137350000Y-110650000D03*
X137350000Y-111950000D03*
D52*
X138000000Y-110000000D03*
D51*
X138650000Y-108050000D03*
X138650000Y-109350000D03*
X138650000Y-110650000D03*
X138650000Y-111950000D03*
%TD*%
D53*
%TO.P,U5,1*%
%TO.N,3V3*%
X125000000Y-155000000D03*
D54*
%TO.P,U5,2*%
%TO.N,GPIO4_DHT22*%
X125000000Y-157540000D03*
%TO.P,U5,3*%
%TO.N,N/C*%
X125000000Y-160080000D03*
%TO.P,U5,4*%
%TO.N,GND*%
X125000000Y-162620000D03*
%TD*%
D33*
%TO.P,J3,1*%
%TO.N,VBAT*%
X112000000Y-176000000D03*
D34*
%TO.P,J3,2*%
%TO.N,GND*%
X117080000Y-176000000D03*
%TD*%
D55*
%TO.P,U6,1*%
%TO.N,GND*%
X137900000Y-154000000D03*
%TO.P,U6,2*%
%TO.N,unconnected-(U6-Pad2)*%
X137900000Y-154500000D03*
%TO.P,U6,3*%
%TO.N,GND*%
X137900000Y-155000000D03*
%TO.P,U6,4*%
%TO.N,RAIN_AO*%
X137900000Y-155500000D03*
%TO.P,U6,5*%
%TO.N,unconnected-(U6-Pad5)*%
X137900000Y-156000000D03*
%TO.P,U6,6*%
%TO.N,unconnected-(U6-Pad6)*%
X142100000Y-156000000D03*
%TO.P,U6,7*%
%TO.N,unconnected-(U6-Pad7)*%
X142100000Y-155500000D03*
%TO.P,U6,8*%
%TO.N,3V3*%
X142100000Y-155000000D03*
%TO.P,U6,9*%
%TO.N,SDA1*%
X142100000Y-154500000D03*
%TO.P,U6,10*%
%TO.N,SCL1*%
X142100000Y-154000000D03*
%TD*%
D12*
%TO.P,R18,1*%
%TO.N,PV_IN*%
X129490000Y-87000000D03*
%TO.P,R18,2*%
%TO.N,CHG_MPPSET*%
X130510000Y-87000000D03*
%TD*%
D56*
%TO.N,3V8_CELL*%
X197503100Y-145454300D03*
X153377800Y-150713200D03*
X145219400Y-132768700D03*
X197503100Y-150713200D03*
X197503100Y-125937000D03*
%TO.N,GND*%
X131480000Y-132860000D03*
X216105000Y-170510000D03*
X135480000Y-148860000D03*
X157475000Y-103450000D03*
X194749500Y-93657900D03*
X216270000Y-158350000D03*
X172480000Y-120860000D03*
X137900000Y-153300000D03*
X201047100Y-92848100D03*
X200950000Y-95309999D03*
X194921300Y-89661700D03*
X139510000Y-87870000D03*
X179650000Y-126475000D03*
X216270000Y-156350000D03*
X160000000Y-172620000D03*
X194250000Y-95309999D03*
X214025000Y-154255000D03*
X134304800Y-99175200D03*
X214480000Y-120860000D03*
X207465000Y-169480000D03*
X156000000Y-169905000D03*
X190480000Y-112860000D03*
X203895000Y-170510000D03*
X203730000Y-158350000D03*
X212545000Y-169480000D03*
X163950000Y-120275000D03*
X190100000Y-132050000D03*
X214212500Y-127137500D03*
X136800000Y-155000000D03*
X181308600Y-110510100D03*
X203730000Y-156350000D03*
X131950000Y-174000000D03*
X214000000Y-94660000D03*
X133501500Y-87778500D03*
X129480000Y-101860000D03*
X188400000Y-132050000D03*
X198900000Y-91110000D03*
%TO.N,3V3*%
X124977300Y-125050000D03*
X185091600Y-153581500D03*
X171729100Y-145648900D03*
X193554500Y-97870000D03*
X140900000Y-155100000D03*
X135799999Y-149650000D03*
X199049999Y-102940000D03*
X192382600Y-123945200D03*
X201549999Y-95890000D03*
X124919400Y-103819800D03*
X171729100Y-151789300D03*
X193500000Y-102940000D03*
%TO.N,5V_RAIL*%
X158675000Y-110000000D03*
X214000000Y-97340000D03*
X139650000Y-125050000D03*
X170000000Y-109380000D03*
X123820000Y-132000000D03*
X149520000Y-118860000D03*
X122650000Y-125050000D03*
X157450000Y-112000000D03*
%TO.N,SDA1*%
X194600000Y-98362700D03*
X186623700Y-147778800D03*
X128172300Y-151095800D03*
%TO.N,SCL1*%
X181941600Y-152563900D03*
X193455300Y-95891700D03*
X128849800Y-150690600D03*
%TO.N,GPIO4_DHT22*%
X148538300Y-157331300D03*
X185845400Y-145779400D03*
X154790100Y-149554000D03*
X194108800Y-99508700D03*
%TO.N,UART_TX_3V3*%
X194923700Y-95904400D03*
X206422000Y-128139300D03*
X204899200Y-116425900D03*
X195329600Y-116425900D03*
%TO.N,UART_RX_3V3*%
X193997700Y-93427800D03*
X195998700Y-124477200D03*
%TO.N,CELL_EN*%
X191434200Y-104299400D03*
X142419200Y-105748900D03*
X141236800Y-127732300D03*
X195417900Y-99183300D03*
%TO.N,CHG_STAT1*%
X125285300Y-102685400D03*
X125285300Y-94301700D03*
X125285300Y-84254500D03*
%TO.N,CELL_NET_STATUS*%
X212626400Y-124948000D03*
X212626400Y-101286500D03*
%TO.N,CELL_PWRKEY*%
X208886500Y-125937700D03*
X209133300Y-100726000D03*
%TO.N,CELL_RESET*%
X197738100Y-93562300D03*
X208581600Y-124940600D03*
X208136500Y-89012900D03*
X197738100Y-89012900D03*
%TO.N,CELL_STATUS*%
X197187200Y-100904400D03*
X210325000Y-125927500D03*
X197363800Y-95324300D03*
X210897500Y-102331000D03*
%TO.N,SPI0_MOSI*%
X206320500Y-100156400D03*
X119708900Y-81522700D03*
X206320500Y-81170900D03*
X119708900Y-143901500D03*
%TO.N,SPI0_MISO*%
X194566800Y-83167300D03*
X115680400Y-144134400D03*
X118499800Y-83143300D03*
X198243500Y-98584300D03*
%TO.N,GPIO25_VSYNC*%
X196556400Y-85200800D03*
X110482500Y-145250000D03*
X198127600Y-95280600D03*
X113396200Y-82039900D03*
%TO.N,SPI0_SCLK*%
X118956700Y-156485400D03*
X200977700Y-99753100D03*
X198448400Y-151573200D03*
X118956700Y-144693700D03*
%TO.N,SPI0_CE0*%
X119104600Y-82591600D03*
X195325700Y-83121200D03*
X119104600Y-143286700D03*
X195999200Y-92680000D03*
%TO.N,CHG_STAT2*%
X128480300Y-95697500D03*
X198934300Y-95288700D03*
X128480300Y-102685400D03*
X130932700Y-81722600D03*
X197250000Y-85634700D03*
%TO.N,ANEMO_UART_TX*%
X196903600Y-162898300D03*
X199874100Y-99421500D03*
%TO.N,ANEMO_UART_RX*%
X180675500Y-157813900D03*
X180675500Y-92346400D03*
%TO.N,SHIFTER_OE*%
X203570900Y-98930500D03*
X204513000Y-129186500D03*
X199238800Y-156563500D03*
%TO.N,ANEMO_DE*%
X197873200Y-162123900D03*
X200737400Y-96721000D03*
%TO.N,DBG_TX*%
X179108000Y-91532200D03*
%TO.N,DBG_RX*%
X200495500Y-98361700D03*
X196213600Y-166105000D03*
%TO.N,USB_CMSN_DP*%
X180400000Y-90316300D03*
%TO.N,USB_CMSN_DM*%
X196809600Y-84397500D03*
X201493100Y-96687400D03*
%TO.N,USB_DP*%
X200022600Y-132355400D03*
X202484100Y-95869400D03*
%TO.N,USB_DM*%
X202359700Y-94816600D03*
X199790600Y-136300000D03*
%TO.N,CHG_VREF*%
X127597600Y-100924300D03*
X127597600Y-96532100D03*
%TO.N,VBAT*%
X136153800Y-107197400D03*
X135894400Y-95378200D03*
X112000000Y-113503600D03*
X134837400Y-87526400D03*
%TO.N,N$1*%
X202158300Y-152951900D03*
X202158300Y-134906300D03*
%TO.N,N$2*%
X205077900Y-153503700D03*
X204829400Y-134290600D03*
%TO.N,N$3*%
X205343100Y-131651700D03*
X205645100Y-154351100D03*
%TO.N,N$4*%
X207532300Y-154134900D03*
X204830600Y-131099900D03*
%TO.N,BAT_SRP*%
X136697500Y-94750000D03*
X140297500Y-100900000D03*
%TO.N,ANT_MATCH*%
X180085800Y-112000000D03*
X171987800Y-130507800D03*
X175480500Y-125192800D03*
%TO.N,CHG_VFB*%
X132948300Y-97235200D03*
X132743900Y-88060400D03*
%TO.N,N$5*%
X120943600Y-155919000D03*
X120943600Y-147328800D03*
%TO.N,N$6*%
X141454600Y-140781600D03*
X137280300Y-144448400D03*
%TO.N,ANEMO_RS485_A*%
X145080000Y-172700800D03*
%TO.N,ANEMO_RS485_B*%
X146143200Y-170472700D03*
%TO.N,CHG_BTST*%
X131602100Y-84813800D03*
X131910800Y-92342300D03*
X135116900Y-91506500D03*
%TO.N,N$8*%
X181250000Y-96000000D03*
%TO.N,BUCK_FB*%
X140772200Y-106433000D03*
X171757800Y-112510000D03*
X139937200Y-112667800D03*
X171757800Y-106719700D03*
%TO.N,CHG_MPPSET*%
X131210500Y-86520800D03*
X130546400Y-93750000D03*
%TO.N,CELL_TX_1V8*%
X203376500Y-144300000D03*
X203376500Y-132864100D03*
%TO.N,VDD_EXT_1V8*%
X195236600Y-148019400D03*
X195360000Y-124941100D03*
%TO.N,CELL_RX_1V8*%
X202711500Y-135516500D03*
X202711500Y-145855000D03*
%TO.N,CELL_STATUS_1V8*%
X204656300Y-136923300D03*
X204656300Y-149837100D03*
%TO.N,CELL_NET_1V8*%
X194327100Y-147615500D03*
X194327100Y-151983900D03*
X204036600Y-150711400D03*
X204036600Y-137830000D03*
%TO.N,N$7*%
X170741400Y-96039700D03*
%TO.N,RAIN_AO*%
X146570200Y-156383800D03*
X146635400Y-158991800D03*
%TD*%
%TO.N,3V8_CELL*%
D57*
X198548800Y-146500000D02*
X201150000Y-146500000D01*
X180748900Y-117228900D02*
X181520000Y-118000000D01*
X141988500Y-128466100D02*
X141988500Y-126199000D01*
X201150000Y-146500000D02*
X201150000Y-147600000D01*
X145219400Y-132768700D02*
X146751300Y-132768700D01*
X195850000Y-127000000D02*
X196950000Y-127000000D01*
X141101500Y-132768700D02*
X140713400Y-132380600D01*
X195850000Y-125937000D02*
X195850000Y-127000000D01*
X140713400Y-132380600D02*
X140713400Y-129741200D01*
X194007700Y-125937000D02*
X193316800Y-125246100D01*
X177520000Y-118000000D02*
X177520000Y-117784300D01*
X178075400Y-117228900D02*
X180748900Y-117228900D01*
X195850000Y-125937000D02*
X194007700Y-125937000D01*
X181520000Y-118268000D02*
X181520000Y-118000000D01*
X188498100Y-125246100D02*
X181520000Y-118268000D01*
X153377800Y-150713200D02*
X197503100Y-150713200D01*
X193316800Y-125246100D02*
X188498100Y-125246100D01*
X195850000Y-125937000D02*
X197503100Y-125937000D01*
X145219400Y-132768700D02*
X141101500Y-132768700D01*
X141988500Y-126199000D02*
X143137500Y-125050000D01*
X146751300Y-132768700D02*
X147520000Y-132000000D01*
X140713400Y-129741200D02*
X141988500Y-128466100D01*
X177520000Y-117784300D02*
X178075400Y-117228900D01*
X197503100Y-145454300D02*
X198548800Y-146500000D01*
%TO.N,GND*%
X129480000Y-101245300D02*
X128930000Y-101795300D01*
X140000000Y-142827700D02*
X140000000Y-142540000D01*
X193005400Y-125997800D02*
X189594600Y-125997800D01*
X130242200Y-100237800D02*
X129480000Y-101000000D01*
D58*
X200399999Y-95110000D02*
X199999999Y-95110000D01*
D59*
X214025000Y-155380000D02*
X214025000Y-154255000D01*
D57*
X176685200Y-120000000D02*
X176685200Y-122210200D01*
X117080000Y-176000000D02*
X118456200Y-177376200D01*
D58*
X194900000Y-95059999D02*
X194850000Y-95059999D01*
D57*
X176685200Y-122210200D02*
X178000000Y-123525000D01*
X182589800Y-117890200D02*
X183260700Y-117219300D01*
X138696300Y-133585900D02*
X133065900Y-133585900D01*
X122480000Y-100252800D02*
X123755000Y-101527800D01*
D60*
X108850000Y-142750000D02*
X109801600Y-142750000D01*
D57*
X122705500Y-104230500D02*
X126475000Y-108000000D01*
D58*
X197400000Y-89960000D02*
X197450000Y-89960000D01*
D57*
X124448900Y-126000000D02*
X123862500Y-126000000D01*
X184550000Y-127000000D02*
X184025000Y-126475000D01*
D58*
X199850000Y-94960000D02*
X199799999Y-94910000D01*
D59*
X214480000Y-120000000D02*
X214480000Y-120860000D01*
D57*
X184550000Y-126625400D02*
X181449600Y-123525000D01*
X177000000Y-86203300D02*
X176571600Y-86631700D01*
X172510000Y-96200200D02*
X172510000Y-96000000D01*
X140540000Y-174000000D02*
X150160000Y-174000000D01*
X135480000Y-148000000D02*
X135480000Y-147347700D01*
X175809500Y-116468500D02*
X181168100Y-116468500D01*
X212701300Y-118000000D02*
X214480000Y-119778700D01*
D58*
X200549999Y-94960000D02*
X200549999Y-95009999D01*
X200549999Y-95009999D02*
X200499999Y-95059999D01*
X198600000Y-91110000D02*
X198900000Y-91110000D01*
D57*
X123755000Y-101527800D02*
X122705500Y-102577300D01*
X216270000Y-159550000D02*
X216270000Y-157550000D01*
D60*
X109901800Y-142649800D02*
X109801600Y-142750000D01*
D57*
X191150000Y-130350000D02*
X192850000Y-130350000D01*
X185187700Y-125987700D02*
X184550000Y-126625400D01*
X128930000Y-101795300D02*
X124022500Y-101795300D01*
D59*
X212545000Y-168530000D02*
X212545000Y-169480000D01*
D57*
X195024200Y-89764600D02*
X197963600Y-89764600D01*
X170979900Y-110510100D02*
X181308600Y-110510100D01*
X107749800Y-148250000D02*
X107748100Y-148248300D01*
X132480000Y-117000000D02*
X132480000Y-113000000D01*
X187850000Y-127000000D02*
X187850000Y-126602400D01*
X170000000Y-111490000D02*
X166760000Y-111490000D01*
X212545000Y-168530000D02*
X207465000Y-168530000D01*
X204475000Y-168530000D02*
X203895000Y-169110000D01*
D61*
X195000000Y-93908400D02*
X194749500Y-93657900D01*
D57*
X175650000Y-89661700D02*
X175650000Y-95185400D01*
X166760000Y-111490000D02*
X166250000Y-112000000D01*
X203884800Y-95520000D02*
X203884800Y-95278600D01*
X150546600Y-174000000D02*
X150760100Y-173786500D01*
X191150000Y-145650000D02*
X189450000Y-145650000D01*
X192850000Y-130350000D02*
X194550000Y-130350000D01*
X122705500Y-102577300D02*
X122705500Y-104230500D01*
X183926500Y-86631700D02*
X182950100Y-85655300D01*
X147428500Y-158089000D02*
X147494500Y-158089000D01*
X173324600Y-95185400D02*
X175650000Y-95185400D01*
X138696300Y-133585900D02*
X138696300Y-141236300D01*
X138003700Y-95476300D02*
X138477300Y-95950000D01*
X184025000Y-126475000D02*
X178000000Y-126475000D01*
D59*
X212925000Y-127137500D02*
X214212500Y-127137500D01*
D57*
X150160000Y-176000000D02*
X150160000Y-174000000D01*
X142480000Y-132000000D02*
X143242200Y-131237800D01*
D58*
X199950000Y-95059999D02*
X199899999Y-95059999D01*
X196750000Y-95460000D02*
X196750000Y-95110000D01*
D57*
X203884800Y-95278600D02*
X201454300Y-92848100D01*
D58*
X195800000Y-97090000D02*
X195850000Y-97039999D01*
D57*
X116480700Y-90599300D02*
X122074300Y-90599300D01*
X182950100Y-85350000D02*
X182950000Y-85350000D01*
D59*
X189450000Y-132050000D02*
X188400000Y-132050000D01*
D57*
X197479800Y-109205400D02*
X198480000Y-108205200D01*
X191150000Y-130350000D02*
X189450000Y-130350000D01*
X145580700Y-148100700D02*
X144733000Y-148948400D01*
X199150000Y-127000000D02*
X199150000Y-129400000D01*
X150760100Y-173786500D02*
X150760100Y-172455200D01*
X148980200Y-158087500D02*
X149318400Y-157749300D01*
D62*
X149770700Y-157749300D02*
X150000000Y-157520000D01*
D57*
X191150000Y-132050000D02*
X192850000Y-132050000D01*
X138696300Y-133585900D02*
X147112100Y-133585900D01*
X122480000Y-99769300D02*
X121135400Y-99769300D01*
X183000000Y-130350000D02*
X182850000Y-130500000D01*
X175650000Y-84980000D02*
X175650000Y-86631700D01*
X193650000Y-127000000D02*
X193650000Y-126642400D01*
D63*
X181700700Y-154789300D02*
X182000000Y-154490000D01*
D58*
X199899999Y-95059999D02*
X199850000Y-95009999D01*
D57*
X132480000Y-113000000D02*
X136300000Y-113000000D01*
X138477300Y-95950000D02*
X143062500Y-95950000D01*
X125551100Y-126000000D02*
X125000000Y-126551100D01*
X130150000Y-174000000D02*
X139062500Y-174000000D01*
X182950100Y-85655300D02*
X182950100Y-85350000D01*
X216105000Y-169110000D02*
X213125000Y-169110000D01*
X134908100Y-148814600D02*
X131294600Y-148814600D01*
X189450000Y-130350000D02*
X183000000Y-130350000D01*
X145480000Y-148000000D02*
X145580700Y-148100700D01*
X204475000Y-168530000D02*
X204475000Y-160295000D01*
D58*
X196650000Y-95009999D02*
X196650000Y-94960000D01*
D57*
X172480000Y-119798000D02*
X175809500Y-116468500D01*
X125000000Y-142540000D02*
X124995000Y-142535000D01*
X214025000Y-155160800D02*
X207864200Y-149000000D01*
X193650000Y-126642400D02*
X193005400Y-125997800D01*
X131905400Y-100237800D02*
X130242200Y-100237800D01*
X121135400Y-99769300D02*
X115080000Y-93713900D01*
X135480000Y-147347700D02*
X140000000Y-142827700D01*
X144733000Y-148948400D02*
X136185700Y-148948400D01*
X194921300Y-89661700D02*
X195024200Y-89764600D01*
D59*
X207465000Y-168530000D02*
X207465000Y-169480000D01*
D57*
X187235300Y-125987700D02*
X185187700Y-125987700D01*
X146261800Y-158240000D02*
X147277500Y-158240000D01*
X161870000Y-171620000D02*
X160000000Y-173490000D01*
X186480000Y-109205400D02*
X190480000Y-109205400D01*
D59*
X130150000Y-174000000D02*
X131950000Y-174000000D01*
D58*
X195000000Y-94460000D02*
X195000000Y-94960000D01*
D57*
X152183500Y-173786500D02*
X152480000Y-173490000D01*
X181213000Y-157062200D02*
X181700800Y-157550000D01*
D58*
X196800000Y-95509999D02*
X196750000Y-95460000D01*
D57*
X138696300Y-141236300D02*
X140000000Y-142540000D01*
X115080000Y-93713900D02*
X115080000Y-92000000D01*
X186480000Y-109205400D02*
X186480000Y-108000000D01*
X176571600Y-86631700D02*
X175650000Y-86631700D01*
X203884800Y-95531800D02*
X203884800Y-95520000D01*
D62*
X149318400Y-157749300D02*
X149770700Y-157749300D01*
D57*
X176685200Y-120000000D02*
X172480000Y-120000000D01*
X139062500Y-174000000D02*
X139062500Y-168950000D01*
X203730000Y-157550000D02*
X214025000Y-157550000D01*
D59*
X135480000Y-148000000D02*
X135480000Y-148860000D01*
D57*
X187948300Y-95185400D02*
X188510000Y-95747100D01*
X182402100Y-86203300D02*
X182950100Y-85655300D01*
X194550000Y-130350000D02*
X195500000Y-129400000D01*
D59*
X203895000Y-169110000D02*
X203895000Y-170510000D01*
D57*
X126279400Y-131200600D02*
X125000000Y-129921200D01*
D58*
X200499999Y-95059999D02*
X200450000Y-95059999D01*
D57*
X136300000Y-113000000D02*
X137350000Y-111950000D01*
X182613300Y-109205400D02*
X186480000Y-109205400D01*
X191150000Y-132050000D02*
X191150000Y-130350000D01*
D58*
X199850000Y-95009999D02*
X199850000Y-94960000D01*
D59*
X163950000Y-119000000D02*
X163950000Y-120275000D01*
D57*
X147112100Y-133585900D02*
X148480000Y-132218000D01*
X137305000Y-108095000D02*
X137350000Y-108050000D01*
D58*
X196800000Y-95559999D02*
X196800000Y-95509999D01*
D57*
X139062500Y-174000000D02*
X140540000Y-174000000D01*
X192850000Y-145650000D02*
X191150000Y-145650000D01*
D64*
X195000000Y-93908400D02*
X195000000Y-93858400D01*
D57*
X172510000Y-96000000D02*
X173324600Y-95185400D01*
X170000000Y-171620000D02*
X161870000Y-171620000D01*
X132480000Y-100812400D02*
X131905400Y-100237800D01*
X150683800Y-117796200D02*
X162746200Y-117796200D01*
X126303700Y-141236300D02*
X125000000Y-142540000D01*
D64*
X137900000Y-154000000D02*
X137900000Y-153300000D01*
D59*
X178000000Y-126475000D02*
X179650000Y-126475000D01*
D58*
X194450000Y-95110000D02*
X194250000Y-95309999D01*
X200600000Y-94910000D02*
X200549999Y-94960000D01*
D57*
X214480000Y-125582500D02*
X213114300Y-126948200D01*
X214025000Y-157550000D02*
X216270000Y-157550000D01*
X125480000Y-113000000D02*
X132480000Y-113000000D01*
X137307200Y-167194600D02*
X139062500Y-168950000D01*
X207864200Y-149000000D02*
X199150000Y-149000000D01*
D59*
X203730000Y-159550000D02*
X203730000Y-158350000D01*
D57*
X214480000Y-119778700D02*
X214480000Y-120000000D01*
X170000000Y-111490000D02*
X170979900Y-110510100D01*
X214025000Y-157550000D02*
X214025000Y-155380000D01*
D59*
X154475000Y-169905000D02*
X156000000Y-169905000D01*
D57*
X122480000Y-99769300D02*
X122480000Y-100252800D01*
X204475000Y-160295000D02*
X203730000Y-159550000D01*
X147277500Y-158240000D02*
X147428500Y-158089000D01*
X129480000Y-101000000D02*
X129480000Y-100749900D01*
X150160000Y-174000000D02*
X150546600Y-174000000D01*
X204480000Y-118000000D02*
X210480000Y-118000000D01*
X202130000Y-97210000D02*
X202206600Y-97210000D01*
X184300000Y-84980000D02*
X184300000Y-86631700D01*
X152480000Y-173490000D02*
X152480000Y-173000000D01*
D58*
X199750000Y-95309999D02*
X199200000Y-95860000D01*
D57*
X189450000Y-143950000D02*
X187750000Y-143950000D01*
D59*
X129480000Y-101000000D02*
X129480000Y-101860000D01*
D57*
X187750000Y-143950000D02*
X186050000Y-142250000D01*
X137350000Y-111950000D02*
X138650000Y-111950000D01*
D59*
X216270000Y-157550000D02*
X216270000Y-156350000D01*
D57*
X194550000Y-130350000D02*
X193650000Y-129450000D01*
X135300000Y-108095000D02*
X137305000Y-108095000D01*
D58*
X197050000Y-95860000D02*
X196850000Y-95660000D01*
D59*
X190480000Y-112000000D02*
X190480000Y-112860000D01*
D58*
X197150000Y-95910000D02*
X197100000Y-95860000D01*
D57*
X137350000Y-105870000D02*
X136480000Y-105000000D01*
X134345300Y-86164700D02*
X138827000Y-86164700D01*
D58*
X199050000Y-95910000D02*
X197150000Y-95910000D01*
X199100000Y-95860000D02*
X199050000Y-95910000D01*
X195800000Y-97540000D02*
X195800000Y-97090000D01*
D57*
X197950000Y-140550000D02*
X197950000Y-142250000D01*
X178480000Y-118205200D02*
X176685200Y-120000000D01*
X132480000Y-101000000D02*
X132480000Y-100812400D01*
X197963600Y-89764600D02*
X201047100Y-92848100D01*
X190480000Y-112643800D02*
X190480000Y-112000000D01*
X157475000Y-102000000D02*
X166710200Y-102000000D01*
X184300000Y-89661700D02*
X194921300Y-89661700D01*
X210480000Y-118000000D02*
X210480000Y-108802800D01*
D64*
X135697500Y-93750000D02*
X135047500Y-93750000D01*
D57*
X150760100Y-173786500D02*
X152183500Y-173786500D01*
D58*
X196650000Y-94960000D02*
X196600000Y-94910000D01*
D57*
X183260700Y-117219300D02*
X185904500Y-117219300D01*
X122074300Y-90599300D02*
X123475000Y-92000000D01*
X210480000Y-118000000D02*
X212701300Y-118000000D01*
X140862500Y-126000000D02*
X125551100Y-126000000D01*
X188950000Y-126642400D02*
X188950000Y-127000000D01*
X181449600Y-123525000D02*
X178000000Y-123525000D01*
X135480000Y-148242700D02*
X134908100Y-148814600D01*
X150457800Y-157062200D02*
X150000000Y-157520000D01*
X129480000Y-100749900D02*
X128730100Y-100000000D01*
X198480000Y-108205200D02*
X198480000Y-108000000D01*
X184550000Y-126625400D02*
X184550000Y-127000000D01*
X162746200Y-117796200D02*
X163950000Y-119000000D01*
X132480000Y-101000000D02*
X134304800Y-99175200D01*
D58*
X194850000Y-95059999D02*
X194800000Y-95110000D01*
D64*
X137900000Y-154000000D02*
X137900000Y-153300000D01*
D57*
X143242200Y-131237800D02*
X147978400Y-131237800D01*
X107748100Y-148248300D02*
X107748100Y-142750000D01*
D58*
X194900000Y-89710000D02*
X195100000Y-89910000D01*
D57*
X188510000Y-95747100D02*
X188510000Y-96000000D01*
X115080000Y-92000000D02*
X116480700Y-90599300D01*
D59*
X139510000Y-87000000D02*
X139510000Y-87870000D01*
D57*
X186050000Y-142250000D02*
X186050000Y-140550000D01*
X171682000Y-119000000D02*
X163950000Y-119000000D01*
X145580700Y-148100700D02*
X146285600Y-148805600D01*
X178480000Y-118000000D02*
X178480000Y-118205200D01*
D59*
X131480000Y-132000000D02*
X131480000Y-132860000D01*
D57*
X125000000Y-126551100D02*
X124448900Y-126000000D01*
X214000000Y-95520000D02*
X203884800Y-95520000D01*
D58*
X200450000Y-95059999D02*
X200399999Y-95110000D01*
D64*
X137900000Y-154000000D02*
X137900000Y-153300000D01*
D57*
X195500000Y-129400000D02*
X199150000Y-129400000D01*
X175650000Y-88360000D02*
X175650000Y-89661700D01*
D58*
X195100000Y-89910000D02*
X197350000Y-89910000D01*
D57*
X110065000Y-142535000D02*
X109950200Y-142649800D01*
X187850000Y-126602400D02*
X187235300Y-125987700D01*
X150480000Y-148251900D02*
X150480000Y-148000000D01*
X131480000Y-131765900D02*
X131480000Y-132000000D01*
X189450000Y-132050000D02*
X191150000Y-132050000D01*
D58*
X200950000Y-95309999D02*
X199750000Y-95309999D01*
D57*
X184300000Y-88360000D02*
X184300000Y-89661700D01*
X137350000Y-108050000D02*
X137350000Y-105870000D01*
D60*
X109950200Y-142649800D02*
X109901800Y-142649800D01*
D57*
X133510000Y-87770000D02*
X133501500Y-87778500D01*
D58*
X196850000Y-95610000D02*
X196800000Y-95559999D01*
D59*
X157475000Y-102000000D02*
X157475000Y-103450000D01*
D64*
X200942300Y-95278100D02*
X200942300Y-95228100D01*
D58*
X199799999Y-94910000D02*
X199799999Y-94809999D01*
D57*
X180566100Y-131739400D02*
X148480000Y-131739400D01*
D58*
X194800000Y-95110000D02*
X194450000Y-95110000D01*
D57*
X192850000Y-143950000D02*
X191150000Y-143950000D01*
X153310300Y-169905000D02*
X154475000Y-169905000D01*
X199150000Y-129400000D02*
X201150000Y-129400000D01*
X140540000Y-174000000D02*
X142540000Y-176000000D01*
D59*
X191150000Y-132050000D02*
X190100000Y-132050000D01*
D58*
X196850000Y-95660000D02*
X196850000Y-95610000D01*
D59*
X172480000Y-120000000D02*
X172480000Y-120860000D01*
D60*
X107748100Y-142750000D02*
X107898400Y-142750000D01*
D57*
X189594600Y-125997800D02*
X188950000Y-126642400D01*
X196201200Y-145650000D02*
X194550000Y-145650000D01*
X193650000Y-127000000D02*
X194750000Y-127000000D01*
X197950000Y-142250000D02*
X194550000Y-145650000D01*
X190480000Y-109205400D02*
X197479800Y-109205400D01*
D59*
X216105000Y-169110000D02*
X216105000Y-170510000D01*
X214000000Y-95520000D02*
X214000000Y-94660000D01*
D58*
X195850000Y-97039999D02*
X195850000Y-96990000D01*
D57*
X181168100Y-116468500D02*
X182589800Y-117890200D01*
D58*
X199999999Y-95110000D02*
X199950000Y-95059999D01*
D57*
X214025000Y-155380000D02*
X214025000Y-155160800D01*
X137350000Y-109350000D02*
X138650000Y-109350000D01*
D64*
X137900000Y-154000000D02*
X137900000Y-153300000D01*
D57*
X192850000Y-143950000D02*
X192850000Y-145650000D01*
D63*
X181305600Y-154789300D02*
X181700700Y-154789300D01*
D57*
X134304800Y-99175200D02*
X138003700Y-95476300D01*
X133065900Y-133585900D02*
X131480000Y-132000000D01*
X124022500Y-101795300D02*
X123755000Y-101527800D01*
X202206600Y-97210000D02*
X203884800Y-95531800D01*
X185904500Y-117219300D02*
X190480000Y-112643800D01*
X136185700Y-148948400D02*
X135480000Y-148242700D01*
X181305600Y-154789300D02*
X181213000Y-154881900D01*
X190480000Y-109205400D02*
X190480000Y-112000000D01*
X177000000Y-86203300D02*
X182402100Y-86203300D01*
X154477800Y-104997200D02*
X136482800Y-104997200D01*
X166710200Y-102000000D02*
X172510000Y-96200200D01*
X182850000Y-130500000D02*
X181805500Y-130500000D01*
X122480000Y-99769300D02*
X122480000Y-99000000D01*
X125000000Y-129921200D02*
X125000000Y-126551100D01*
X187850000Y-127000000D02*
X188950000Y-127000000D01*
X147496000Y-158087500D02*
X148980200Y-158087500D01*
X172480000Y-119798000D02*
X171682000Y-119000000D01*
X172480000Y-120000000D02*
X172480000Y-119798000D01*
D58*
X197450000Y-89960000D02*
X198600000Y-91110000D01*
D57*
X150480000Y-118000000D02*
X150683800Y-117796200D01*
D60*
X108850000Y-142750000D02*
X107898400Y-142750000D01*
D57*
X193650000Y-129450000D02*
X193650000Y-127000000D01*
X130914700Y-131200600D02*
X131480000Y-131765900D01*
X199077600Y-108802800D02*
X198480000Y-108205200D01*
X141163800Y-177376200D02*
X142540000Y-176000000D01*
X181213000Y-157062200D02*
X150457800Y-157062200D01*
X199150000Y-148598800D02*
X196201200Y-145650000D01*
X177000000Y-85350000D02*
X177000000Y-86203300D01*
X182480000Y-118000000D02*
X182589800Y-117890200D01*
X181805500Y-130500000D02*
X180566100Y-131739400D01*
X135480000Y-148000000D02*
X135480000Y-148242700D01*
X184300000Y-86631700D02*
X183926500Y-86631700D01*
X213125000Y-169110000D02*
X212545000Y-168530000D01*
X191150000Y-143950000D02*
X189450000Y-143950000D01*
D64*
X137900000Y-155000000D02*
X136800000Y-155000000D01*
D57*
X203730000Y-159550000D02*
X203730000Y-157550000D01*
X126279400Y-131200600D02*
X130914700Y-131200600D01*
D58*
X195000000Y-94960000D02*
X194900000Y-95059999D01*
D57*
X192850000Y-145650000D02*
X194550000Y-145650000D01*
X124995000Y-142535000D02*
X110065000Y-142535000D01*
X210480000Y-108802800D02*
X199077600Y-108802800D01*
X186480000Y-117794800D02*
X185904500Y-117219300D01*
D59*
X216270000Y-159550000D02*
X216270000Y-158350000D01*
D57*
X133510000Y-87000000D02*
X133510000Y-87770000D01*
X148480000Y-131739400D02*
X148480000Y-132000000D01*
X148480000Y-132218000D02*
X148480000Y-132000000D01*
X138696300Y-141236300D02*
X126303700Y-141236300D01*
X118456200Y-177376200D02*
X141163800Y-177376200D01*
X152480000Y-173490000D02*
X160000000Y-173490000D01*
X136482800Y-104997200D02*
X136480000Y-105000000D01*
X138827000Y-86164700D02*
X139510000Y-86847700D01*
X132732500Y-162620000D02*
X137307200Y-167194600D01*
X138000000Y-110000000D02*
X138650000Y-110650000D01*
X131294600Y-148814600D02*
X130480000Y-148000000D01*
X137307200Y-167194600D02*
X146261800Y-158240000D01*
X139510000Y-86847700D02*
X139510000Y-87000000D01*
X150760100Y-172455200D02*
X153310300Y-169905000D01*
X207465000Y-168530000D02*
X204475000Y-168530000D01*
X146285600Y-148805600D02*
X149926300Y-148805600D01*
D59*
X160000000Y-173490000D02*
X160000000Y-172620000D01*
D57*
X147978400Y-131237800D02*
X148480000Y-131739400D01*
X125000000Y-162620000D02*
X132732500Y-162620000D01*
D58*
X196750000Y-95110000D02*
X196650000Y-95009999D01*
X196600000Y-94910000D02*
X196600000Y-94809999D01*
D57*
X133510000Y-87000000D02*
X134345300Y-86164700D01*
D58*
X199200000Y-95860000D02*
X199100000Y-95860000D01*
D60*
X107749800Y-148250000D02*
X108850000Y-148250000D01*
D57*
X175650000Y-95185400D02*
X187948300Y-95185400D01*
X210480000Y-108802800D02*
X210480000Y-108000000D01*
X147494500Y-158089000D02*
X147496000Y-158087500D01*
X184550000Y-127000000D02*
X185650000Y-127000000D01*
X201454300Y-92848100D02*
X201047100Y-92848100D01*
X181308600Y-110510100D02*
X182613300Y-109205400D01*
D58*
X195850000Y-96990000D02*
X196950000Y-95890000D01*
D57*
X181213000Y-154881900D02*
X181213000Y-157062200D01*
X128730100Y-100000000D02*
X127510000Y-100000000D01*
D59*
X203730000Y-157550000D02*
X203730000Y-156350000D01*
D57*
X214480000Y-120000000D02*
X214480000Y-125582500D01*
D65*
X213114300Y-126948200D02*
X212925000Y-127137500D01*
D57*
X157475000Y-102000000D02*
X154477800Y-104997200D01*
D58*
X200600000Y-94460000D02*
X200600000Y-94910000D01*
D57*
X149926300Y-148805600D02*
X150480000Y-148251900D01*
X186480000Y-118000000D02*
X186480000Y-117794800D01*
D58*
X197350000Y-89910000D02*
X197400000Y-89960000D01*
X197100000Y-95860000D02*
X197050000Y-95860000D01*
D57*
X181700800Y-157550000D02*
X203730000Y-157550000D01*
X199150000Y-149000000D02*
X199150000Y-148598800D01*
X129480000Y-101000000D02*
X129480000Y-101245300D01*
X125480000Y-132000000D02*
X126279400Y-131200600D01*
%TO.N,3V3*%
X140538478Y-140365722D02*
X140538478Y-141240000D01*
X124919400Y-103819800D02*
X125670200Y-103819800D01*
D58*
X200400000Y-96240000D02*
X200500000Y-96140000D01*
D63*
X155694400Y-151789300D02*
X155299400Y-151789300D01*
D57*
X186000000Y-154490000D02*
X185091600Y-153581500D01*
X151230000Y-147601734D02*
X151230000Y-148562560D01*
X130179340Y-148760000D02*
X130091734Y-148760000D01*
X155000000Y-143490000D02*
X155772200Y-142717800D01*
X125670200Y-103819800D02*
X126490000Y-103000000D01*
X129520000Y-147740900D02*
X129520000Y-148000000D01*
X125000000Y-152520000D02*
X113221700Y-152520000D01*
D58*
X201350000Y-96090000D02*
X201549999Y-95890000D01*
D57*
X151520000Y-173000000D02*
X151520000Y-172775900D01*
X154094900Y-140000000D02*
X140000000Y-140000000D01*
D63*
X155694400Y-139789300D02*
X155299300Y-139789300D01*
D57*
X129520000Y-148000000D02*
X125000000Y-152520000D01*
X155849800Y-164720200D02*
X160838000Y-164720200D01*
X192602300Y-123725500D02*
X192382600Y-123945200D01*
X171729100Y-151789300D02*
X155694400Y-151789300D01*
X108850000Y-149250000D02*
X109350000Y-149250000D01*
D58*
X199700000Y-96890000D02*
X200350000Y-96240000D01*
D57*
X140538478Y-141240000D02*
X146538478Y-147240000D01*
X144520000Y-147725600D02*
X145056600Y-147189000D01*
D58*
X199049999Y-102940000D02*
X193500000Y-102940000D01*
X197549999Y-96940000D02*
X197600000Y-96890000D01*
D57*
X185091600Y-153581500D02*
X183299300Y-151789300D01*
X151520000Y-172775900D02*
X153130200Y-171165700D01*
X154305600Y-139789300D02*
X141114900Y-139789300D01*
X153130200Y-171165700D02*
X159344300Y-171165700D01*
X123490000Y-103141200D02*
X124168600Y-103819800D01*
D58*
X197400000Y-97040000D02*
X197500000Y-96940000D01*
D57*
X125000000Y-152520000D02*
X125000000Y-153798300D01*
X207505300Y-123725500D02*
X192602300Y-123725500D01*
X129730000Y-147601734D02*
X130139634Y-147192100D01*
D64*
X141000000Y-155000000D02*
X140900000Y-155100000D01*
D57*
X144520000Y-148000000D02*
X144520000Y-147725600D01*
X160145900Y-170510000D02*
X160000000Y-170510000D01*
X148709000Y-147189000D02*
X149418600Y-147898600D01*
X155772200Y-139867100D02*
X155694400Y-139789300D01*
X149418600Y-147898600D02*
X151891200Y-145426000D01*
D64*
X142100000Y-155000000D02*
X141000000Y-155000000D01*
D58*
X197600000Y-96890000D02*
X199700000Y-96890000D01*
D57*
X109400900Y-149250000D02*
X109350000Y-149250000D01*
D58*
X200350000Y-96240000D02*
X200400000Y-96240000D01*
D57*
X152802500Y-145292400D02*
X155000000Y-147490000D01*
X133712100Y-147192100D02*
X130068800Y-147192100D01*
D61*
X193870000Y-97870000D02*
X194200000Y-97540000D01*
D63*
X154700700Y-143789300D02*
X154850400Y-143639600D01*
D60*
X109138900Y-149038900D02*
X108850000Y-148750000D01*
D57*
X152668900Y-145426000D02*
X152802500Y-145292400D01*
X154305600Y-139789300D02*
X154094900Y-140000000D01*
X146538478Y-147240000D02*
X150868266Y-147240000D01*
X126137500Y-125050000D02*
X124977300Y-125050000D01*
D63*
X155299400Y-151789300D02*
X155149700Y-151639600D01*
D57*
X131117740Y-149698400D02*
X130179340Y-148760000D01*
D63*
X154305600Y-143789300D02*
X154700700Y-143789300D01*
D58*
X200500000Y-96140000D02*
X201250000Y-96140000D01*
D57*
X160838000Y-164720200D02*
X160838000Y-169817900D01*
D65*
X207725000Y-126004500D02*
X207725000Y-127137500D01*
D57*
X207725000Y-123945200D02*
X207505300Y-123725500D01*
X155772200Y-142717800D02*
X155772200Y-139867100D01*
X109400900Y-149250000D02*
X109951700Y-149250000D01*
X150868266Y-147240000D02*
X151230000Y-147601734D01*
X193870000Y-97870000D02*
X193554500Y-97870000D01*
X152802500Y-145292400D02*
X154305600Y-143789300D01*
X160838000Y-164720200D02*
X161558200Y-164000000D01*
X154475000Y-166095000D02*
X155849800Y-164720200D01*
X129730000Y-148398266D02*
X129730000Y-147601734D01*
D58*
X197400000Y-97540000D02*
X197400000Y-97040000D01*
D57*
X160838000Y-169817900D02*
X160145900Y-170510000D01*
X123490000Y-103000000D02*
X123490000Y-103141200D01*
X141114900Y-139789300D02*
X140538478Y-140365722D01*
X183299300Y-151789300D02*
X171729100Y-151789300D01*
X209574800Y-123945200D02*
X207725000Y-123945200D01*
X207725000Y-123945200D02*
X207725000Y-126004500D01*
D63*
X155149700Y-151639600D02*
X155000000Y-151490000D01*
D57*
X149418600Y-147898600D02*
X149520000Y-148000000D01*
X151891200Y-145426000D02*
X152668900Y-145426000D01*
X130091734Y-148760000D02*
X129730000Y-148398266D01*
X134520000Y-148000000D02*
X133712100Y-147192100D01*
X171729100Y-145648900D02*
X158703300Y-145648900D01*
X124168600Y-103819800D02*
X124919400Y-103819800D01*
X113221700Y-152520000D02*
X109951700Y-149250000D01*
X154850400Y-143639600D02*
X155000000Y-143490000D01*
D63*
X155299300Y-139789300D02*
X155000000Y-139490000D01*
X154305600Y-139789300D02*
X154700700Y-139789300D01*
D57*
X151230000Y-148562560D02*
X150094160Y-149698400D01*
X125000000Y-155000000D02*
X125000000Y-153798300D01*
X213520000Y-120000000D02*
X209574800Y-123945200D01*
X130068800Y-147192100D02*
X129520000Y-147740900D01*
X125000000Y-137520000D02*
X125000000Y-140000000D01*
X109350000Y-149250000D02*
X109138900Y-149038900D01*
D58*
X201250000Y-96140000D02*
X201299999Y-96090000D01*
D57*
X159344300Y-171165700D02*
X160000000Y-170510000D01*
D58*
X197500000Y-96940000D02*
X197549999Y-96940000D01*
D57*
X145056600Y-147189000D02*
X148709000Y-147189000D01*
X150094160Y-149698400D02*
X131117740Y-149698400D01*
X130520000Y-132000000D02*
X125000000Y-137520000D01*
X130139634Y-147192100D02*
X133712100Y-147192100D01*
X161558200Y-164000000D02*
X170000000Y-164000000D01*
D58*
X201299999Y-96090000D02*
X201350000Y-96090000D01*
D57*
X158703300Y-145648900D02*
X155772200Y-142717800D01*
D63*
X154700700Y-139789300D02*
X155000000Y-139490000D01*
%TO.N,5V_RAIL*%
D57*
X214000000Y-102719100D02*
X214000000Y-96480000D01*
X187692500Y-105623300D02*
X192703600Y-105623300D01*
D59*
X214000000Y-96480000D02*
X214000000Y-97340000D01*
D57*
X197520000Y-107718400D02*
X197520000Y-108000000D01*
D58*
X194600000Y-94460000D02*
X194299999Y-94460000D01*
D57*
X193824000Y-94460000D02*
X192703600Y-95580400D01*
X141643700Y-124268800D02*
X140862500Y-125050000D01*
D59*
X154825000Y-110000000D02*
X158675000Y-110000000D01*
D57*
X209520000Y-107199100D02*
X214000000Y-102719100D01*
X192703600Y-95580400D02*
X192703600Y-105623300D01*
X185520000Y-108000000D02*
X185520000Y-107795800D01*
X140094100Y-124281600D02*
X140862500Y-125050000D01*
X123249500Y-126950000D02*
X122745000Y-126445500D01*
X192703600Y-105623300D02*
X195424900Y-105623300D01*
X150318900Y-116986300D02*
X149520000Y-117785200D01*
X168510000Y-110000000D02*
X170000000Y-108510000D01*
X123862500Y-125050000D02*
X124630900Y-124281600D01*
X159750000Y-110000000D02*
X168510000Y-110000000D01*
X149520000Y-117785200D02*
X149520000Y-118000000D01*
X149546900Y-119000000D02*
X149546900Y-118026900D01*
D59*
X170000000Y-108510000D02*
X170000000Y-109380000D01*
D64*
X124520000Y-132000000D02*
X123820000Y-132000000D01*
D57*
X123862500Y-131342500D02*
X123862500Y-126950000D01*
X122745000Y-126445500D02*
X122745000Y-125528900D01*
D62*
X170299300Y-108210700D02*
X185520000Y-108210700D01*
D57*
X141520000Y-131301400D02*
X141520000Y-132000000D01*
D59*
X149520000Y-118000000D02*
X149520000Y-118860000D01*
D57*
X144278100Y-124268800D02*
X144278100Y-128543300D01*
X122745000Y-125528900D02*
X123223900Y-125050000D01*
D59*
X140862500Y-125050000D02*
X139650000Y-125050000D01*
D57*
X144278100Y-128543300D02*
X141520000Y-131301400D01*
X209520000Y-107199100D02*
X198039300Y-107199100D01*
X124630900Y-124281600D02*
X140094100Y-124281600D01*
D59*
X123862500Y-125050000D02*
X122650000Y-125050000D01*
D57*
X154763700Y-116986300D02*
X150318900Y-116986300D01*
X195424900Y-105623300D02*
X197520000Y-107718400D01*
X185520000Y-108000000D02*
X185520000Y-108210700D01*
X149546900Y-118026900D02*
X149520000Y-118000000D01*
X149546900Y-119000000D02*
X162050000Y-119000000D01*
X123862500Y-126950000D02*
X123249500Y-126950000D01*
X198039300Y-107199100D02*
X197520000Y-107718400D01*
X123223900Y-125050000D02*
X123862500Y-125050000D01*
X209520000Y-107199100D02*
X209520000Y-108000000D01*
D59*
X159750000Y-112000000D02*
X157450000Y-112000000D01*
D57*
X155763400Y-110000000D02*
X159750000Y-110000000D01*
D63*
X170299300Y-108210700D02*
X170000000Y-108510000D01*
D57*
X159750000Y-112000000D02*
X154763700Y-116986300D01*
X185520000Y-107795800D02*
X187692500Y-105623300D01*
X159750000Y-112000000D02*
X159750000Y-110000000D01*
X154825000Y-110000000D02*
X155763400Y-110000000D01*
X149546900Y-119000000D02*
X144278100Y-124268800D01*
X144278100Y-124268800D02*
X141643700Y-124268800D01*
X124520000Y-132000000D02*
X123862500Y-131342500D01*
%TO.N,SDA1*%
D58*
X128298100Y-150462200D02*
X129204500Y-149555800D01*
X126136600Y-144636500D02*
X126136600Y-146483400D01*
X130197322Y-149555800D02*
X130889922Y-150248400D01*
X121012700Y-146250000D02*
X123311800Y-143950900D01*
X126136600Y-146483400D02*
X125000000Y-147620000D01*
X108850000Y-146250000D02*
X121012700Y-146250000D01*
X154538800Y-150140400D02*
X182011500Y-150140400D01*
X138139600Y-152342300D02*
X129649800Y-152342300D01*
X153954200Y-149555800D02*
X154538800Y-150140400D01*
X130889922Y-150248400D02*
X150321978Y-150248400D01*
X140297300Y-154500000D02*
X138139600Y-152342300D01*
X194600000Y-97540000D02*
X194600000Y-98362700D01*
X129649800Y-152342300D02*
X128298100Y-150990600D01*
X142100000Y-154500000D02*
X140297300Y-154500000D01*
X128298100Y-150990600D02*
X128298100Y-150462200D01*
X129204500Y-149555800D02*
X130197322Y-149555800D01*
X184373100Y-147778800D02*
X186623700Y-147778800D01*
X125451000Y-143950900D02*
X126136600Y-144636500D01*
X123311800Y-143950900D02*
X125451000Y-143950900D01*
X128192900Y-151095800D02*
X128172300Y-151095800D01*
X182011500Y-150140400D02*
X184373100Y-147778800D01*
X128298100Y-150990600D02*
X128192900Y-151095800D01*
X153954200Y-149555800D02*
X155000000Y-148510000D01*
X150321978Y-150248400D02*
X151014578Y-149555800D01*
X151014578Y-149555800D02*
X153954200Y-149555800D01*
%TO.N,SCL1*%
X155000000Y-152563900D02*
X181941600Y-152563900D01*
X155000000Y-152563900D02*
X155000000Y-152510000D01*
X142100000Y-154000000D02*
X142100000Y-152938800D01*
X139851800Y-150690600D02*
X142100000Y-152938800D01*
X195000000Y-97540000D02*
X195000000Y-97149100D01*
X142100000Y-152938800D02*
X154625100Y-152938800D01*
X193742600Y-95891700D02*
X193455300Y-95891700D01*
X123330000Y-146750000D02*
X108850000Y-146750000D01*
X195000000Y-97149100D02*
X193742600Y-95891700D01*
X125000000Y-145080000D02*
X123330000Y-146750000D01*
X154625100Y-152938800D02*
X155000000Y-152563900D01*
X128849800Y-150690600D02*
X139851800Y-150690600D01*
%TO.N,GPIO4_DHT22*%
X194268600Y-99508700D02*
X194108800Y-99508700D01*
X147049000Y-157688300D02*
X147406000Y-157331300D01*
X155572200Y-148225000D02*
X155572200Y-148866600D01*
X155000000Y-144510000D02*
X155572200Y-145082200D01*
X195400000Y-97540000D02*
X195400000Y-98377300D01*
X125148300Y-157688300D02*
X147049000Y-157688300D01*
X195400000Y-98377300D02*
X194268600Y-99508700D01*
X155572200Y-145082200D02*
X155572200Y-148225000D01*
X183399800Y-148225000D02*
X185845400Y-145779400D01*
X125000000Y-157540000D02*
X125148300Y-157688300D01*
X155572200Y-148225000D02*
X183399800Y-148225000D01*
X147406000Y-157331300D02*
X148538300Y-157331300D01*
X154884800Y-149554000D02*
X154790100Y-149554000D01*
X155572200Y-148866600D02*
X154884800Y-149554000D01*
%TO.N,UART_TX_3V3*%
X195400000Y-94460000D02*
X195400000Y-95428100D01*
X207959600Y-128139300D02*
X206422000Y-128139300D01*
X195329600Y-116425900D02*
X204899200Y-116425900D01*
X208375000Y-127723900D02*
X207959600Y-128139300D01*
X195400000Y-95428100D02*
X194923700Y-95904400D01*
X208375000Y-127137500D02*
X208375000Y-127723900D01*
%TO.N,UART_RX_3V3*%
X195800000Y-93904500D02*
X194982100Y-93086600D01*
X195800000Y-94460000D02*
X195800000Y-93904500D01*
X194338900Y-93086600D02*
X193997700Y-93427800D01*
X204414700Y-124477200D02*
X195998700Y-124477200D01*
X194982100Y-93086600D02*
X194338900Y-93086600D01*
X207075000Y-127137500D02*
X204414700Y-124477200D01*
%TO.N,CELL_EN*%
X142419200Y-105748900D02*
X168698100Y-105748900D01*
X168698100Y-105748900D02*
X170147600Y-104299400D01*
X196200000Y-97540000D02*
X196200000Y-98401200D01*
X140862500Y-126950000D02*
X141236800Y-127324300D01*
X196200000Y-98401200D02*
X195417900Y-99183300D01*
X141236800Y-127324300D02*
X141236800Y-127732300D01*
X170147600Y-104299400D02*
X191434200Y-104299400D01*
%TO.N,CHG_STAT1*%
X150374200Y-87220900D02*
X147407800Y-84254500D01*
X125285300Y-102685400D02*
X124824600Y-102685400D01*
X176753600Y-87998400D02*
X175976100Y-87220900D01*
X196200000Y-93807200D02*
X195091000Y-92698200D01*
X124824600Y-102685400D02*
X124510000Y-103000000D01*
X175976100Y-87220900D02*
X150374200Y-87220900D01*
X193680800Y-92964600D02*
X179698700Y-92964600D01*
X179698700Y-92964600D02*
X176753600Y-90019500D01*
X132250800Y-94301700D02*
X125285300Y-94301700D01*
X176753600Y-90019500D02*
X176753600Y-87998400D01*
X195091000Y-92698200D02*
X193947200Y-92698200D01*
X196200000Y-94460000D02*
X196200000Y-93807200D01*
X193947200Y-92698200D02*
X193680800Y-92964600D01*
X147407800Y-84254500D02*
X125285300Y-84254500D01*
X132302500Y-94250000D02*
X132250800Y-94301700D01*
%TO.N,CELL_NET_STATUS*%
X210975000Y-127137500D02*
X210975000Y-126465300D01*
X212492300Y-124948000D02*
X212626400Y-124948000D01*
X199040800Y-101286500D02*
X212626400Y-101286500D01*
X196600000Y-98845700D02*
X199040800Y-101286500D01*
X210975000Y-126465300D02*
X212492300Y-124948000D01*
X196600000Y-97540000D02*
X196600000Y-98845700D01*
%TO.N,CELL_PWRKEY*%
X208886500Y-126999000D02*
X208886500Y-125937700D01*
X198977600Y-100726000D02*
X209133300Y-100726000D01*
X197000000Y-98748400D02*
X198977600Y-100726000D01*
X197000000Y-97540000D02*
X197000000Y-98748400D01*
X209025000Y-127137500D02*
X208886500Y-126999000D01*
%TO.N,CELL_RESET*%
X197468100Y-93562300D02*
X197000000Y-94030400D01*
X208679900Y-124940600D02*
X208581600Y-124940600D01*
X197738100Y-93562300D02*
X197468100Y-93562300D01*
X197000000Y-94030400D02*
X197000000Y-94460000D01*
X197738100Y-89012900D02*
X208136500Y-89012900D01*
X209675000Y-125935700D02*
X208679900Y-124940600D01*
X209675000Y-127137500D02*
X209675000Y-125935700D01*
%TO.N,CELL_STATUS*%
X197187200Y-100904400D02*
X198613800Y-102331000D01*
X210325000Y-127137500D02*
X210325000Y-125927500D01*
X197400000Y-94460000D02*
X197400000Y-95288100D01*
X198613800Y-102331000D02*
X210897500Y-102331000D01*
X197400000Y-95288100D02*
X197363800Y-95324300D01*
%TO.N,SPI0_MOSI*%
X130704300Y-81170900D02*
X206320500Y-81170900D01*
X116095100Y-143537900D02*
X116458700Y-143901500D01*
X130352600Y-81522700D02*
X130352600Y-81522600D01*
X112621500Y-143750000D02*
X112833600Y-143537900D01*
X130352600Y-81522600D02*
X130704300Y-81170900D01*
X197800000Y-98247700D02*
X197691800Y-98355900D01*
X116458700Y-143901500D02*
X119708900Y-143901500D01*
X112833600Y-143537900D02*
X116095100Y-143537900D01*
X197691800Y-98355900D02*
X197691800Y-98869500D01*
X206151900Y-100325000D02*
X206320500Y-100156400D01*
X197800000Y-97540000D02*
X197800000Y-98247700D01*
X197691800Y-98869500D02*
X199147300Y-100325000D01*
X119708900Y-81522700D02*
X130352600Y-81522700D01*
X108850000Y-143750000D02*
X112621500Y-143750000D01*
X199147300Y-100325000D02*
X206151900Y-100325000D01*
%TO.N,SPI0_MISO*%
X115564800Y-144250000D02*
X115680400Y-144134400D01*
X194421200Y-83021700D02*
X194566800Y-83167300D01*
X119454700Y-83021700D02*
X194421200Y-83021700D01*
X108850000Y-144250000D02*
X115564800Y-144250000D01*
X198200000Y-98540800D02*
X198243500Y-98584300D01*
X198200000Y-97540000D02*
X198200000Y-98540800D01*
X118499800Y-83143300D02*
X119333100Y-83143300D01*
X119333100Y-83143300D02*
X119454700Y-83021700D01*
%TO.N,GPIO25_VSYNC*%
X198200000Y-94460000D02*
X198200000Y-95208200D01*
X197362400Y-84139000D02*
X195487200Y-82263800D01*
X197362400Y-84660400D02*
X197362400Y-84139000D01*
X195487200Y-82263800D02*
X135156800Y-82263800D01*
X135156800Y-82263800D02*
X135146200Y-82274400D01*
X198200000Y-95208200D02*
X198127600Y-95280600D01*
X196556400Y-85200800D02*
X196822000Y-85200800D01*
X108850000Y-145250000D02*
X110482500Y-145250000D01*
X135146200Y-82274400D02*
X119567600Y-82274400D01*
X196822000Y-85200800D02*
X197362400Y-84660400D01*
X119333100Y-82039900D02*
X113396200Y-82039900D01*
X119567600Y-82274400D02*
X119333100Y-82039900D01*
%TO.N,SPI0_SCLK*%
X193979500Y-156042100D02*
X185118600Y-156042100D01*
X200757500Y-99973300D02*
X200977700Y-99753100D01*
X183015300Y-153938800D02*
X150301200Y-153938800D01*
X108850000Y-144750000D02*
X109751700Y-144750000D01*
X199645800Y-99973300D02*
X200757500Y-99973300D01*
X185118600Y-156042100D02*
X183015300Y-153938800D01*
X134395800Y-157336600D02*
X133544600Y-156485400D01*
X198448400Y-151573200D02*
X193979500Y-156042100D01*
X109808000Y-144693700D02*
X118956700Y-144693700D01*
X198796200Y-99123700D02*
X199645800Y-99973300D01*
X198796200Y-98354800D02*
X198796200Y-99123700D01*
X146903400Y-157336600D02*
X134395800Y-157336600D01*
X133544600Y-156485400D02*
X118956700Y-156485400D01*
X109751700Y-144750000D02*
X109808000Y-144693700D01*
X150301200Y-153938800D02*
X146903400Y-157336600D01*
X198600000Y-97540000D02*
X198600000Y-98158600D01*
X198600000Y-98158600D02*
X198796200Y-98354800D01*
%TO.N,SPI0_CE0*%
X118956800Y-143138900D02*
X119104600Y-143286700D01*
X135291800Y-82626100D02*
X135302400Y-82615500D01*
X119139000Y-82626000D02*
X119139000Y-82626100D01*
X119139000Y-82626100D02*
X135291800Y-82626100D01*
X197636000Y-92680000D02*
X195999200Y-92680000D01*
X108850000Y-143250000D02*
X112533500Y-143250000D01*
X112644600Y-143138900D02*
X118956800Y-143138900D01*
X194820000Y-82615500D02*
X195325700Y-83121200D01*
X135302400Y-82615500D02*
X194820000Y-82615500D01*
X119104600Y-82591600D02*
X119139000Y-82626000D01*
X198600000Y-94460000D02*
X198600000Y-93644000D01*
X198600000Y-93644000D02*
X197636000Y-92680000D01*
X112533500Y-143250000D02*
X112644600Y-143138900D01*
%TO.N,CHG_STAT2*%
X198934300Y-95288700D02*
X199000000Y-95223000D01*
X133250000Y-95697500D02*
X128480300Y-95697500D01*
X199000000Y-95223000D02*
X199000000Y-94460000D01*
X197743300Y-83993900D02*
X197743300Y-85141400D01*
X130932700Y-81722600D02*
X195472000Y-81722600D01*
X197743300Y-85141400D02*
X197250000Y-85634700D01*
X195472000Y-81722600D02*
X197743300Y-83993900D01*
X127824600Y-102685400D02*
X128480300Y-102685400D01*
X127510000Y-103000000D02*
X127824600Y-102685400D01*
%TO.N,ANEMO_UART_TX*%
X156102500Y-162898300D02*
X196903600Y-162898300D01*
X153046400Y-165954400D02*
X156102500Y-162898300D01*
X149843900Y-169905000D02*
X153046400Y-166702500D01*
X199400000Y-98947400D02*
X199874100Y-99421500D01*
X149525000Y-169905000D02*
X149843900Y-169905000D01*
X153046400Y-166702500D02*
X153046400Y-165954400D01*
X199400000Y-97540000D02*
X199400000Y-98947400D01*
%TO.N,ANEMO_UART_RX*%
X180940000Y-92081900D02*
X180675500Y-92346400D01*
X157806100Y-157813900D02*
X180675500Y-157813900D01*
X197535200Y-92081900D02*
X180940000Y-92081900D01*
X199400000Y-94460000D02*
X199400000Y-93946700D01*
X199400000Y-93946700D02*
X197535200Y-92081900D01*
X149525000Y-166095000D02*
X157806100Y-157813900D01*
%TO.N,SHIFTER_OE*%
X199800000Y-97540000D02*
X199800000Y-98463000D01*
X182000000Y-155510000D02*
X183053500Y-156563500D01*
X212925000Y-132276300D02*
X212925000Y-132862500D01*
X183053500Y-156563500D02*
X199238800Y-156563500D01*
X199800000Y-98463000D02*
X200267500Y-98930500D01*
X204513000Y-129186500D02*
X209835200Y-129186500D01*
X209835200Y-129186500D02*
X212925000Y-132276300D01*
X200267500Y-98930500D02*
X203570900Y-98930500D01*
%TO.N,ANEMO_DE*%
X200200000Y-97111400D02*
X200590400Y-96721000D01*
X149525000Y-167365000D02*
X151138400Y-167365000D01*
X151138400Y-167365000D02*
X156379500Y-162123900D01*
X156379500Y-162123900D02*
X197873200Y-162123900D01*
X200200000Y-97540000D02*
X200200000Y-97111400D01*
X149525000Y-168635000D02*
X149525000Y-167365000D01*
X200590400Y-96721000D02*
X200737400Y-96721000D01*
%TO.N,DBG_TX*%
X197736700Y-91532200D02*
X179108000Y-91532200D01*
X200200000Y-93995500D02*
X197736700Y-91532200D01*
X200200000Y-94460000D02*
X200200000Y-93995500D01*
%TO.N,DBG_RX*%
X170000000Y-169080000D02*
X172975000Y-166105000D01*
X200600000Y-97540000D02*
X200600000Y-98257200D01*
X172975000Y-166105000D02*
X196213600Y-166105000D01*
X200600000Y-98257200D02*
X200495500Y-98361700D01*
%TO.N,USB_CMSN_DP*%
X179550000Y-84331900D02*
X180400000Y-85181900D01*
X201000000Y-94068500D02*
X197247800Y-90316300D01*
X201000000Y-94460000D02*
X201000000Y-94068500D01*
X180400000Y-85181900D02*
X180400000Y-85350000D01*
X197247800Y-90316300D02*
X180400000Y-90316300D01*
X179550000Y-84000000D02*
X179550000Y-84331900D01*
%TO.N,USB_CMSN_DM*%
X194013500Y-83395700D02*
X195015300Y-84397500D01*
X180400000Y-84000000D02*
X180400000Y-83971900D01*
X201400000Y-96780500D02*
X201493100Y-96687400D01*
X180976200Y-83395700D02*
X194013500Y-83395700D01*
X195015300Y-84397500D02*
X196809600Y-84397500D01*
X201400000Y-97540000D02*
X201400000Y-96780500D01*
X180400000Y-83971900D02*
X180976200Y-83395700D01*
%TO.N,USB_DP*%
X193700000Y-134600000D02*
X185591000Y-134600000D01*
X200022600Y-132355400D02*
X195944600Y-132355400D01*
X183091000Y-137100000D02*
X182850000Y-137100000D01*
X195944600Y-132355400D02*
X193700000Y-134600000D01*
X185591000Y-134600000D02*
X183091000Y-137100000D01*
X201400000Y-94460000D02*
X201400000Y-94884800D01*
X202384600Y-95869400D02*
X202484100Y-95869400D01*
X201400000Y-94884800D02*
X202384600Y-95869400D01*
%TO.N,USB_DM*%
X182850000Y-138200000D02*
X183664400Y-138200000D01*
X201800000Y-94460000D02*
X202003100Y-94460000D01*
X183664400Y-138200000D02*
X185564400Y-136300000D01*
X202003100Y-94460000D02*
X202359700Y-94816600D01*
X185564400Y-136300000D02*
X199790600Y-136300000D01*
%TO.N,CHG_VREF*%
X128520000Y-101000000D02*
X124490000Y-101000000D01*
X124490000Y-101000000D02*
X123490000Y-100000000D01*
X133750000Y-96107000D02*
X133324900Y-96532100D01*
X128444300Y-100924300D02*
X127597600Y-100924300D01*
X133750000Y-95697500D02*
X134250000Y-95697500D01*
X133324900Y-96532100D02*
X127597600Y-96532100D01*
X128520000Y-101000000D02*
X128444300Y-100924300D01*
X133750000Y-95697500D02*
X133750000Y-96107000D01*
%TO.N,CHG_TS*%
X126490000Y-96855500D02*
X126490000Y-100000000D01*
X126490000Y-100000000D02*
X124510000Y-100000000D01*
X132302500Y-94750000D02*
X128595500Y-94750000D01*
X128595500Y-94750000D02*
X126490000Y-96855500D01*
%TO.N,VBAT*%
D57*
X135300000Y-109365000D02*
X134056600Y-109365000D01*
X124520000Y-113000000D02*
X124016400Y-113503600D01*
X135490000Y-87000000D02*
X135363800Y-87000000D01*
X134422400Y-107197400D02*
X135520000Y-107197400D01*
X135520000Y-104775900D02*
X135520000Y-105000000D01*
X135697500Y-94827100D02*
X135697500Y-95181300D01*
X146114500Y-103348000D02*
X140480000Y-103348000D01*
X124520000Y-113000000D02*
X124520000Y-109735000D01*
D66*
X135697500Y-94827100D02*
X135697500Y-94750000D01*
D57*
X131537500Y-168000000D02*
X120000000Y-168000000D01*
X140480000Y-102000000D02*
X140480000Y-103348000D01*
X120000000Y-168000000D02*
X112000000Y-176000000D01*
X135520000Y-107197400D02*
X136153800Y-107197400D01*
X140480000Y-103348000D02*
X136947900Y-103348000D01*
X134056600Y-107563200D02*
X134422400Y-107197400D01*
X135697500Y-95181300D02*
X135894400Y-95378200D01*
X147462500Y-102000000D02*
X146114500Y-103348000D01*
X136947900Y-103348000D02*
X135520000Y-104775900D01*
X124016400Y-113503600D02*
X112000000Y-113503600D01*
X135520000Y-107197400D02*
X135520000Y-105000000D01*
X134056600Y-109365000D02*
X134056600Y-107563200D01*
X124890000Y-109365000D02*
X123525000Y-108000000D01*
X135300000Y-110635000D02*
X135300000Y-109365000D01*
X147462500Y-102000000D02*
X154525000Y-102000000D01*
X134056600Y-109365000D02*
X124890000Y-109365000D01*
X124520000Y-109735000D02*
X124890000Y-109365000D01*
X135363800Y-87000000D02*
X134837400Y-87526400D01*
%TO.N,N$1*%
D58*
X212755000Y-155380000D02*
X210326900Y-152951900D01*
X201156300Y-134906300D02*
X202158300Y-134906300D01*
X210326900Y-152951900D02*
X202158300Y-152951900D01*
X201150000Y-134900000D02*
X201156300Y-134906300D01*
%TO.N,N$2*%
X208338700Y-153503700D02*
X205077900Y-153503700D01*
X201640600Y-134290600D02*
X204829400Y-134290600D01*
X210215000Y-155380000D02*
X208338700Y-153503700D01*
X201150000Y-133800000D02*
X201640600Y-134290600D01*
%TO.N,N$3*%
X207675000Y-155380000D02*
X206646100Y-154351100D01*
X206646100Y-154351100D02*
X205645100Y-154351100D01*
X201201700Y-131651700D02*
X205343100Y-131651700D01*
X201150000Y-131600000D02*
X201201700Y-131651700D01*
%TO.N,N$4*%
X201150000Y-132700000D02*
X201537700Y-132312300D01*
X205945800Y-131456300D02*
X205589400Y-131099900D01*
X205589400Y-131099900D02*
X204830600Y-131099900D01*
X205945800Y-131887400D02*
X205945800Y-131456300D01*
X205520900Y-132312300D02*
X205945800Y-131887400D01*
X201537700Y-132312300D02*
X205520900Y-132312300D01*
X207532300Y-154134900D02*
X207699900Y-154134900D01*
X207699900Y-154134900D02*
X208945000Y-155380000D01*
%TO.N,BUCK_VCC*%
X140700000Y-110635000D02*
X141726700Y-110635000D01*
X132128900Y-117608900D02*
X131520000Y-117000000D01*
X141726700Y-112350000D02*
X136467800Y-117608900D01*
X141726700Y-110635000D02*
X141726700Y-112350000D01*
X136467800Y-117608900D02*
X132128900Y-117608900D01*
%TO.N,CHG_REGN*%
X143796300Y-94666200D02*
X143796300Y-95296200D01*
X147112500Y-91350000D02*
X143796300Y-94666200D01*
X137914400Y-93250000D02*
X135697500Y-93250000D01*
X143796300Y-95296200D02*
X144099100Y-95599000D01*
X132135600Y-101615600D02*
X131520000Y-101000000D01*
X144099100Y-95599000D02*
X144099100Y-96220700D01*
X139330600Y-94666200D02*
X137914400Y-93250000D01*
X143796300Y-94666200D02*
X139330600Y-94666200D01*
X144099100Y-96220700D02*
X138704200Y-101615600D01*
X138704200Y-101615600D02*
X132135600Y-101615600D01*
%TO.N,BUCK_SW*%
D57*
X144480000Y-112818300D02*
X147298300Y-110000000D01*
X140700000Y-108095000D02*
X145393300Y-108095000D01*
X149175000Y-110000000D02*
X147298300Y-110000000D01*
X144480000Y-116000000D02*
X144480000Y-112818300D01*
X145393300Y-108095000D02*
X147298300Y-110000000D01*
%TO.N,BAT_SRP*%
X139520000Y-102000000D02*
X139520000Y-101741800D01*
X147036100Y-99501400D02*
X144537500Y-102000000D01*
D58*
X136297500Y-94350000D02*
X136697500Y-94750000D01*
X135997500Y-94300000D02*
X136197500Y-94300000D01*
D57*
X156948300Y-92000000D02*
X156948300Y-93642100D01*
X143737000Y-101199500D02*
X144537500Y-102000000D01*
X156948300Y-93642100D02*
X151089000Y-99501400D01*
D58*
X135947500Y-94250000D02*
X135997500Y-94300000D01*
X136247500Y-94350000D02*
X136297500Y-94350000D01*
D57*
X151089000Y-99501400D02*
X147036100Y-99501400D01*
X139520000Y-101741800D02*
X140062300Y-101199500D01*
X158825000Y-92000000D02*
X156948300Y-92000000D01*
X140062300Y-101199500D02*
X143737000Y-101199500D01*
D58*
X136197500Y-94300000D02*
X136247500Y-94350000D01*
X135697500Y-94250000D02*
X135947500Y-94250000D01*
%TO.N,ANT_MATCH*%
X175480500Y-125192800D02*
X176282200Y-125192800D01*
X171987800Y-130507800D02*
X171017800Y-130507800D01*
X171017800Y-130507800D02*
X170510000Y-130000000D01*
X189520000Y-112000000D02*
X180085800Y-112000000D01*
X176282200Y-125192800D02*
X176475000Y-125000000D01*
%TO.N,CHG_VFB*%
X136510000Y-87000000D02*
X138490000Y-87000000D01*
X134750000Y-96079600D02*
X134750000Y-95697500D01*
X136510000Y-87000000D02*
X135149900Y-88360100D01*
X133043600Y-88360100D02*
X132743900Y-88060400D01*
X132948300Y-97235200D02*
X133594400Y-97235200D01*
X135149900Y-88360100D02*
X133043600Y-88360100D01*
X133594400Y-97235200D02*
X134750000Y-96079600D01*
%TO.N,MPPT_SW*%
D57*
X144937500Y-95000000D02*
X148298300Y-95000000D01*
X134250000Y-91557700D02*
X134250000Y-91272800D01*
X153175000Y-92000000D02*
X151298300Y-92000000D01*
X142842700Y-90730200D02*
X143062500Y-90950000D01*
X147944900Y-88646600D02*
X145641500Y-90950000D01*
X134792600Y-90730200D02*
X142842700Y-90730200D01*
D66*
X134250000Y-91557700D02*
X134250000Y-92302500D01*
D57*
X145641500Y-90950000D02*
X143062500Y-90950000D01*
X147944900Y-88646600D02*
X148480000Y-88111500D01*
X148480000Y-88111500D02*
X148480000Y-87000000D01*
X148298300Y-95000000D02*
X151298300Y-92000000D01*
X147944900Y-88646600D02*
X151298300Y-92000000D01*
X134250000Y-91272800D02*
X134792600Y-90730200D01*
%TO.N,N$5*%
D58*
X133690200Y-156133700D02*
X121158300Y-156133700D01*
X120864800Y-147250000D02*
X108850000Y-147250000D01*
X186000000Y-155510000D02*
X184077000Y-153587000D01*
X150155700Y-153587000D02*
X146757800Y-156984900D01*
X184077000Y-153587000D02*
X150155700Y-153587000D01*
X120943600Y-147328800D02*
X120864800Y-147250000D01*
X121158300Y-156133700D02*
X120943600Y-155919000D01*
X146757800Y-156984900D02*
X134541400Y-156984900D01*
X134541400Y-156984900D02*
X133690200Y-156133700D01*
%TO.N,N$6*%
X109751700Y-147750000D02*
X110752800Y-148751100D01*
X108850000Y-147750000D02*
X109751700Y-147750000D01*
X155000000Y-140510000D02*
X154728400Y-140781600D01*
X130580000Y-144448400D02*
X137280300Y-144448400D01*
X126277300Y-148751100D02*
X130580000Y-144448400D01*
X154728400Y-140781600D02*
X141454600Y-140781600D01*
X110752800Y-148751100D02*
X126277300Y-148751100D01*
%TO.N,ANEMO_RS485_A*%
X149165200Y-172700800D02*
X153231000Y-168635000D01*
X153231000Y-168635000D02*
X154475000Y-168635000D01*
X145080000Y-172700800D02*
X144250800Y-172700800D01*
X160000000Y-167780000D02*
X159145000Y-168635000D01*
X154475000Y-168635000D02*
X159145000Y-168635000D01*
X139062500Y-167512500D02*
X139062500Y-167050000D01*
X145080000Y-172700800D02*
X149165200Y-172700800D01*
X144250800Y-172700800D02*
X139062500Y-167512500D01*
X160000000Y-166510000D02*
X160000000Y-167780000D01*
X159145000Y-168635000D02*
X160000000Y-169490000D01*
%TO.N,ANEMO_RS485_B*%
X146143200Y-170472700D02*
X150530900Y-170472700D01*
X148785900Y-177165900D02*
X157344100Y-177165900D01*
X146143200Y-170472700D02*
X143410200Y-170472700D01*
X153638600Y-167365000D02*
X154475000Y-167365000D01*
X157344100Y-177165900D02*
X160000000Y-174510000D01*
X143410200Y-170472700D02*
X140937500Y-168000000D01*
X158125000Y-167365000D02*
X154475000Y-167365000D01*
X160000000Y-165490000D02*
X158125000Y-167365000D01*
X150530900Y-170472700D02*
X153638600Y-167365000D01*
X147620000Y-176000000D02*
X148785900Y-177165900D01*
%TO.N,CHG_BTST*%
X133210200Y-92342300D02*
X131910800Y-92342300D01*
X147520000Y-87000000D02*
X145333800Y-84813800D01*
X146581800Y-90867200D02*
X145942500Y-91506500D01*
X145942500Y-91506500D02*
X135116900Y-91506500D01*
X147754700Y-90867200D02*
X146581800Y-90867200D01*
X145333800Y-84813800D02*
X131602100Y-84813800D01*
X133250000Y-92302500D02*
X133210200Y-92342300D01*
X148887500Y-92000000D02*
X147754700Y-90867200D01*
%TO.N,N$8*%
X181250000Y-96000000D02*
X187490000Y-96000000D01*
%TO.N,BUCK_FB*%
X170000000Y-106719700D02*
X171757800Y-106719700D01*
X170000000Y-112510000D02*
X171757800Y-112510000D01*
X170000000Y-106719700D02*
X170000000Y-107490000D01*
X170000000Y-106719700D02*
X169713300Y-106433000D01*
X169713300Y-106433000D02*
X140772200Y-106433000D01*
X140700000Y-111905000D02*
X139937200Y-112667800D01*
%TO.N,CHG_MPPSET*%
X132302500Y-93750000D02*
X130546400Y-93750000D01*
X130510000Y-87000000D02*
X130989200Y-86520800D01*
X130510000Y-87000000D02*
X132490000Y-87000000D01*
X130989200Y-86520800D02*
X131210500Y-86520800D01*
%TO.N,CHG_LODRV*%
X141315000Y-92302500D02*
X143062500Y-94050000D01*
X134750000Y-92302500D02*
X141315000Y-92302500D01*
%TO.N,ANT_IN*%
X171520000Y-120000000D02*
X171520000Y-126691000D01*
X172159500Y-127330500D02*
X169490000Y-130000000D01*
X185972900Y-127854600D02*
X184203000Y-127854600D01*
X184203000Y-127854600D02*
X183678900Y-127330500D01*
X186750000Y-127000000D02*
X186750000Y-127077500D01*
X171520000Y-126691000D02*
X172159500Y-127330500D01*
X183678900Y-127330500D02*
X172159500Y-127330500D01*
X186750000Y-127077500D02*
X185972900Y-127854600D01*
%TO.N,BUCK_BOOT*%
X140700000Y-109365000D02*
X141726700Y-109365000D01*
X143520000Y-111158300D02*
X141726700Y-109365000D01*
X143520000Y-116000000D02*
X143520000Y-111158300D01*
%TO.N,CELL_TX_1V8*%
X207075000Y-132862500D02*
X203378100Y-132862500D01*
X201150000Y-144300000D02*
X203376500Y-144300000D01*
X203378100Y-132862500D02*
X203376500Y-132864100D01*
%TO.N,VDD_EXT_1V8*%
X196950000Y-148874500D02*
X196094900Y-148019400D01*
X203520000Y-118000000D02*
X202954800Y-118565200D01*
X191813300Y-124226600D02*
X192281100Y-124694400D01*
X196950000Y-149000000D02*
X196950000Y-148874500D01*
X192281100Y-124694400D02*
X195113300Y-124694400D01*
X196094900Y-148019400D02*
X195236600Y-148019400D01*
X195505600Y-125086700D02*
X199598900Y-125086700D01*
X195113300Y-124694400D02*
X195360000Y-124941100D01*
X199598900Y-125086700D02*
X205162400Y-130650200D01*
X202954800Y-118565200D02*
X191813300Y-118565200D01*
X207725000Y-132271100D02*
X207725000Y-132862500D01*
X191813300Y-118565200D02*
X186085200Y-118565200D01*
X206104100Y-130650200D02*
X207725000Y-132271100D01*
X195360000Y-124941100D02*
X195505600Y-125086700D01*
X205162400Y-130650200D02*
X206104100Y-130650200D01*
X191813300Y-118565200D02*
X191813300Y-124226600D01*
X186085200Y-118565200D02*
X185520000Y-118000000D01*
%TO.N,CELL_RX_1V8*%
X201605000Y-145855000D02*
X201150000Y-145400000D01*
X206370500Y-135516500D02*
X202711500Y-135516500D01*
X208375000Y-133512000D02*
X206370500Y-135516500D01*
X202711500Y-145855000D02*
X201605000Y-145855000D01*
X208375000Y-132862500D02*
X208375000Y-133512000D01*
%TO.N,CELL_PWRKEY_1V8*%
X184779400Y-138838200D02*
X184779400Y-142470700D01*
X201747700Y-138802800D02*
X200016700Y-138802800D01*
X200016700Y-138802800D02*
X199292100Y-138078200D01*
X202903200Y-137399000D02*
X202903200Y-137647300D01*
X184779400Y-142470700D02*
X182950100Y-144300000D01*
X204282300Y-136019900D02*
X202903200Y-137399000D01*
X209025000Y-132862500D02*
X209025000Y-133524500D01*
X209025000Y-133524500D02*
X206529600Y-136019900D01*
X182950100Y-144300000D02*
X182850000Y-144300000D01*
X206529600Y-136019900D02*
X204282300Y-136019900D01*
X199292100Y-138078200D02*
X185539400Y-138078200D01*
X185539400Y-138078200D02*
X184779400Y-138838200D01*
X202903200Y-137647300D02*
X201747700Y-138802800D01*
%TO.N,CELL_RESET_1V8*%
X209675000Y-132862500D02*
X209675000Y-133504500D01*
X185264900Y-144185200D02*
X182950100Y-146500000D01*
X201821200Y-139226700D02*
X199634500Y-139226700D01*
X185629900Y-139700000D02*
X185264900Y-140065000D01*
X203254900Y-137544600D02*
X203254900Y-137793000D01*
X185264900Y-140065000D02*
X185264900Y-144185200D01*
X182950100Y-146500000D02*
X182850000Y-146500000D01*
X199634500Y-139226700D02*
X199161200Y-139700000D01*
X203254900Y-137793000D02*
X201821200Y-139226700D01*
X209675000Y-133504500D02*
X206807900Y-136371600D01*
X204427900Y-136371600D02*
X203254900Y-137544600D01*
X199161200Y-139700000D02*
X185629900Y-139700000D01*
X206807900Y-136371600D02*
X204427900Y-136371600D01*
%TO.N,CELL_STATUS_1V8*%
X206855200Y-136923300D02*
X204656300Y-136923300D01*
X210325000Y-132862500D02*
X210325000Y-133453500D01*
X186387000Y-149837100D02*
X185650000Y-149100100D01*
X210325000Y-133453500D02*
X206855200Y-136923300D01*
X204656300Y-149837100D02*
X186387000Y-149837100D01*
X185650000Y-149100100D02*
X185650000Y-149000000D01*
%TO.N,CELL_NET_1V8*%
X186750000Y-148905800D02*
X188040300Y-147615500D01*
X198364900Y-150711400D02*
X197092400Y-151983900D01*
X188040300Y-147615500D02*
X194327100Y-147615500D01*
X186750000Y-149000000D02*
X186750000Y-148905800D01*
X204036600Y-137830000D02*
X206624700Y-137830000D01*
X210975000Y-133479700D02*
X210975000Y-132862500D01*
X206624700Y-137830000D02*
X210975000Y-133479700D01*
X204036600Y-150711400D02*
X198364900Y-150711400D01*
X197092400Y-151983900D02*
X194327100Y-151983900D01*
%TO.N,N$7*%
X170741400Y-96039700D02*
X171450300Y-96039700D01*
X171450300Y-96039700D02*
X171490000Y-96000000D01*
%TO.N,PV_RAW*%
D57*
X124000000Y-87000000D02*
X122593500Y-88406500D01*
X122593500Y-88406500D02*
X113593500Y-88406500D01*
X113593500Y-88406500D02*
X110000000Y-92000000D01*
%TO.N,ANEMO_V_SENSOR*%
X134462500Y-168000000D02*
X131727900Y-170734600D01*
X129115400Y-170734600D02*
X125850000Y-174000000D01*
X131727900Y-170734600D02*
X129115400Y-170734600D01*
X127850000Y-176000000D02*
X125850000Y-174000000D01*
X140000000Y-176000000D02*
X127850000Y-176000000D01*
%TO.N,PV_IN*%
X121356600Y-85643400D02*
X128133400Y-85643400D01*
X129405200Y-86915200D02*
X130754900Y-85565500D01*
X132087200Y-85391800D02*
X141034600Y-85391800D01*
X144937500Y-89294700D02*
X144937500Y-90000000D01*
X129490000Y-87000000D02*
X129490000Y-87953600D01*
X121490000Y-96000000D02*
X121490000Y-93394800D01*
X124048800Y-93394800D02*
X121490000Y-93394800D01*
X130754900Y-85565500D02*
X131913500Y-85565500D01*
X121490000Y-93394800D02*
X120525000Y-92429800D01*
X129490000Y-87953600D02*
X124048800Y-93394800D01*
X141034600Y-85391800D02*
X144937500Y-89294700D01*
X120525000Y-92429800D02*
X120525000Y-92000000D01*
X131913500Y-85565500D02*
X132087200Y-85391800D01*
X128133400Y-85643400D02*
X129405200Y-86915200D01*
X129405200Y-86915200D02*
X129490000Y-87000000D01*
X120000000Y-87000000D02*
X121356600Y-85643400D01*
%TO.N,CHG_HIDRV*%
D58*
X133686500Y-91002800D02*
X135639300Y-89050000D01*
X133750000Y-92302500D02*
X133686500Y-92239000D01*
X135639300Y-89050000D02*
X143062500Y-89050000D01*
X133686500Y-92239000D02*
X133686500Y-91002800D01*
%TO.N,CHG_VCC*%
X122510000Y-96000000D02*
X122510000Y-98010000D01*
X132250800Y-93198300D02*
X125311700Y-93198300D01*
X132302500Y-93250000D02*
X132250800Y-93198300D01*
X125311700Y-93198300D02*
X122510000Y-96000000D01*
X122510000Y-98010000D02*
X121520000Y-99000000D01*
%TO.N,RAIN_AO*%
X149488200Y-158991800D02*
X146635400Y-158991800D01*
X140737500Y-156439500D02*
X139798000Y-155500000D01*
X150000000Y-158480000D02*
X149488200Y-158991800D01*
X146514500Y-156439500D02*
X140737500Y-156439500D01*
X146570200Y-156383800D02*
X146514500Y-156439500D01*
X139798000Y-155500000D02*
X137900000Y-155500000D01*
%TD*%
M02*
