M48
; DRILL file KiCad 10.0.6 date 2026-09-09T21:57:21
; FORMAT={-:-/ absolute / metric / decimal}
; #@! TF.CreationDate,2026-09-09T21:57:21-05:00
; #@! TF.GenerationSoftware,Kicad,Pcbnew,10.0.6
; #@! TF.FileFunction,MixedPlating,1,4
FMAT,2
METRIC
; #@! TA.AperFunction,Plated,PTH,ViaDrill
T1C0.300
; #@! TA.AperFunction,Plated,PTH,ComponentDrill
T2C0.300
; #@! TA.AperFunction,Plated,PTH,ComponentDrill
T3C0.400
; #@! TA.AperFunction,Plated,PTH,ComponentDrill
T4C0.600
; #@! TA.AperFunction,Plated,PTH,ComponentDrill
T5C0.800
; #@! TA.AperFunction,Plated,PTH,ComponentDrill
T6C1.000
; #@! TA.AperFunction,Plated,PTH,ComponentDrill
T7C1.300
%
G90
G05
T1
X110.483Y-145.25
X112.0Y-113.504
X113.396Y-82.04
X115.68Y-144.134
X118.5Y-83.143
X118.957Y-144.694
X118.957Y-156.485
X119.105Y-82.592
X119.105Y-143.287
X119.709Y-81.523
X119.709Y-143.901
X120.944Y-147.329
X120.944Y-155.919
X122.65Y-125.05
X123.82Y-132.0
X124.919Y-103.82
X124.977Y-125.05
X125.285Y-84.254
X125.285Y-94.302
X125.285Y-102.685
X127.598Y-96.532
X127.598Y-100.924
X128.172Y-151.096
X128.48Y-95.697
X128.48Y-102.685
X128.85Y-150.691
X129.48Y-101.86
X130.546Y-93.75
X130.933Y-81.723
X131.21Y-86.521
X131.48Y-132.86
X131.602Y-84.814
X131.911Y-92.342
X131.95Y-174.0
X132.744Y-88.06
X132.948Y-97.235
X133.501Y-87.778
X134.305Y-99.175
X134.837Y-87.526
X135.117Y-91.507
X135.48Y-148.86
X135.8Y-149.65
X135.894Y-95.378
X136.154Y-107.197
X136.697Y-94.75
X136.8Y-155.0
X137.28Y-144.448
X137.9Y-153.3
X139.51Y-87.87
X139.65Y-125.05
X139.937Y-112.668
X140.297Y-100.9
X140.772Y-106.433
X140.9Y-155.1
X141.237Y-127.732
X141.455Y-140.782
X142.419Y-105.749
X145.08Y-172.701
X145.219Y-132.769
X146.143Y-170.473
X146.57Y-156.384
X146.635Y-158.992
X148.538Y-157.331
X149.52Y-118.86
X153.378Y-150.713
X154.79Y-149.554
X156.0Y-169.905
X157.45Y-112.0
X157.475Y-103.45
X158.675Y-110.0
X160.0Y-172.62
X163.95Y-120.275
X170.0Y-109.38
X170.741Y-96.04
X171.729Y-145.649
X171.729Y-151.789
X171.758Y-106.72
X171.758Y-112.51
X171.988Y-130.508
X172.48Y-120.86
X175.48Y-125.193
X179.108Y-91.532
X179.65Y-126.475
X180.086Y-112.0
X180.4Y-90.316
X180.675Y-92.346
X180.675Y-157.814
X181.25Y-96.0
X181.309Y-110.51
X181.942Y-152.564
X185.092Y-153.582
X185.845Y-145.779
X186.624Y-147.779
X188.4Y-132.05
X190.1Y-132.05
X190.48Y-112.86
X191.434Y-104.299
X192.383Y-123.945
X193.455Y-95.892
X193.5Y-102.94
X193.554Y-97.87
X193.998Y-93.428
X194.109Y-99.509
X194.25Y-95.31
X194.327Y-147.615
X194.327Y-151.984
X194.567Y-83.167
X194.6Y-98.363
X194.749Y-93.658
X194.921Y-89.662
X194.924Y-95.904
X195.237Y-148.019
X195.326Y-83.121
X195.33Y-116.426
X195.36Y-124.941
X195.418Y-99.183
X195.999Y-124.477
X195.999Y-92.68
X196.214Y-166.105
X196.556Y-85.201
X196.81Y-84.397
X196.904Y-162.898
X197.187Y-100.904
X197.25Y-85.635
X197.364Y-95.324
X197.503Y-125.937
X197.503Y-145.454
X197.503Y-150.713
X197.738Y-89.013
X197.738Y-93.562
X197.873Y-162.124
X198.128Y-95.281
X198.243Y-98.584
X198.448Y-151.573
X198.9Y-91.11
X198.934Y-95.289
X199.05Y-102.94
X199.239Y-156.564
X199.791Y-136.3
X199.874Y-99.421
X200.023Y-132.355
X200.495Y-98.362
X200.737Y-96.721
X200.95Y-95.31
X200.978Y-99.753
X201.047Y-92.848
X201.493Y-96.687
X201.55Y-95.89
X202.158Y-134.906
X202.158Y-152.952
X202.36Y-94.817
X202.484Y-95.869
X202.712Y-135.517
X202.712Y-145.855
X203.376Y-132.864
X203.376Y-144.3
X203.571Y-98.93
X203.73Y-156.35
X203.73Y-158.35
X203.895Y-170.51
X204.037Y-137.83
X204.037Y-150.711
X204.513Y-129.186
X204.656Y-136.923
X204.656Y-149.837
X204.829Y-134.291
X204.831Y-131.1
X204.899Y-116.426
X205.078Y-153.504
X205.343Y-131.652
X205.645Y-154.351
X206.32Y-81.171
X206.32Y-100.156
X206.422Y-128.139
X207.465Y-169.48
X207.532Y-154.135
X208.136Y-89.013
X208.582Y-124.941
X208.886Y-125.938
X209.133Y-100.726
X210.325Y-125.927
X210.897Y-102.331
X212.545Y-169.48
X212.626Y-101.286
X212.626Y-124.948
X214.0Y-94.66
X214.0Y-97.34
X214.025Y-154.255
X214.212Y-127.137
X214.48Y-120.86
X216.105Y-170.51
X216.27Y-156.35
X216.27Y-158.35
T2
X133.5Y-93.5
X133.5Y-94.5
X134.5Y-93.5
X134.5Y-94.5
X137.35Y-108.05
X137.35Y-109.35
X137.35Y-110.65
X137.35Y-111.95
X138.65Y-108.05
X138.65Y-109.35
X138.65Y-110.65
X138.65Y-111.95
T3
X177.0Y-84.0
X177.0Y-85.35
X177.85Y-84.0
X177.85Y-85.35
X178.7Y-84.0
X178.7Y-85.35
X179.55Y-84.0
X179.55Y-85.35
X180.4Y-84.0
X180.4Y-85.35
X181.25Y-84.0
X181.25Y-85.35
X182.1Y-84.0
X182.1Y-85.35
X182.95Y-84.0
X182.95Y-85.35
T5
X125.0Y-155.0
X125.0Y-157.54
X125.0Y-160.08
X125.0Y-162.62
T6
X125.0Y-140.0
X125.0Y-142.54
X125.0Y-145.08
X125.0Y-147.62
X125.0Y-150.16
X140.0Y-140.0
X140.0Y-142.54
X140.0Y-145.08
X140.0Y-147.62
X140.0Y-176.0
X142.54Y-176.0
X145.08Y-176.0
X147.62Y-176.0
X150.16Y-176.0
X170.0Y-164.0
X170.0Y-166.54
X170.0Y-169.08
X170.0Y-171.62
T7
X110.0Y-92.0
X112.0Y-176.0
X115.08Y-92.0
X117.08Y-176.0
T4
X175.65Y-84.23G85X175.65Y-85.73
G05
X175.65Y-87.96G85X175.65Y-88.76
G05
X184.3Y-84.23G85X184.3Y-85.73
G05
X184.3Y-87.96G85X184.3Y-88.76
G05
M30
