%TF.GenerationSoftware,KiCad,Pcbnew,10.0.6*%
%TF.CreationDate,2026-09-08T21:37:06-05:00*%
%TF.ProjectId,dlr_carrier,646c725f-6361-4727-9269-65722e6b6963,rev?*%
%TF.SameCoordinates,Original*%
%TF.FileFunction,Copper,L4,Bot*%
%TF.FilePolarity,Positive*%
%FSLAX46Y46*%
G04 Gerber Fmt 4.6, Leading zero omitted, Abs format (unit mm)*
G04 Created by KiCad (PCBNEW 10.0.6) date 2026-09-08 21:37:06*
%MOMM*%
%LPD*%
G01*
G04 APERTURE LIST*
G04 Aperture macros list*
%AMRoundRect*
0 Rectangle with rounded corners*
0 $1 Rounding radius*
0 $2 $3 $4 $5 $6 $7 $8 $9 X,Y pos of 4 corners*
0 Add a 4 corners polygon primitive as box body*
4,1,4,$2,$3,$4,$5,$6,$7,$8,$9,$2,$3,0*
0 Add four circle primitives for the rounded corners*
1,1,$1+$1,$2,$3*
1,1,$1+$1,$4,$5*
1,1,$1+$1,$6,$7*
1,1,$1+$1,$8,$9*
0 Add four rect primitives between the rounded corners*
20,1,$1+$1,$2,$3,$4,$5,0*
20,1,$1+$1,$4,$5,$6,$7,0*
20,1,$1+$1,$6,$7,$8,$9,0*
20,1,$1+$1,$8,$9,$2,$3,0*%
G04 Aperture macros list end*
%TA.AperFunction,ComponentPad*%
%ADD10RoundRect,0.250000X-1.050000X-1.050000X1.050000X-1.050000X1.050000X1.050000X-1.050000X1.050000X0*%
%TD*%
%TA.AperFunction,ComponentPad*%
%ADD11C,2.600000*%
%TD*%
%TA.AperFunction,ComponentPad*%
%ADD12C,0.700000*%
%TD*%
%TA.AperFunction,ComponentPad*%
%ADD13O,0.900000X2.400000*%
%TD*%
%TA.AperFunction,ComponentPad*%
%ADD14O,0.900000X1.700000*%
%TD*%
%TA.AperFunction,HeatsinkPad*%
%ADD15C,0.600000*%
%TD*%
%TA.AperFunction,HeatsinkPad*%
%ADD16R,1.600000X1.600000*%
%TD*%
%TA.AperFunction,ComponentPad*%
%ADD17R,1.700000X1.700000*%
%TD*%
%TA.AperFunction,ComponentPad*%
%ADD18C,1.700000*%
%TD*%
%TA.AperFunction,ComponentPad*%
%ADD19C,0.600000*%
%TD*%
%TA.AperFunction,SMDPad,CuDef*%
%ADD20R,2.950000X4.900000*%
%TD*%
%TA.AperFunction,ComponentPad*%
%ADD21R,1.500000X1.500000*%
%TD*%
%TA.AperFunction,ComponentPad*%
%ADD22C,1.500000*%
%TD*%
%TA.AperFunction,ViaPad*%
%ADD23C,0.600000*%
%TD*%
%TA.AperFunction,Conductor*%
%ADD24C,0.600000*%
%TD*%
%TA.AperFunction,Conductor*%
%ADD25C,0.200000*%
%TD*%
G04 APERTURE END LIST*
D10*
%TO.P,J1,1*%
%TO.N,PV_RAW*%
X110000000Y-92000000D03*
D11*
%TO.P,J1,2*%
%TO.N,GND*%
X115080000Y-92000000D03*
%TD*%
D10*
%TO.P,J3,1*%
%TO.N,VBAT*%
X112000000Y-176000000D03*
D11*
%TO.P,J3,2*%
%TO.N,GND*%
X117080000Y-176000000D03*
%TD*%
D12*
%TO.P,J12,A1*%
%TO.N,GND*%
X177000000Y-84000000D03*
%TO.P,J12,A4*%
%TO.N,unconnected-(J12-PadA4)*%
X177850000Y-84000000D03*
%TO.P,J12,A5*%
%TO.N,N$7*%
X178700000Y-84000000D03*
%TO.P,J12,A6*%
%TO.N,USB_CMSN_DP*%
X179550000Y-84000000D03*
%TO.P,J12,A7*%
%TO.N,USB_CMSN_DM*%
X180400000Y-84000000D03*
%TO.P,J12,A8*%
%TO.N,N/C*%
X181250000Y-84000000D03*
%TO.P,J12,A9*%
%TO.N,unconnected-(J12-PadA9)*%
X182100000Y-84000000D03*
%TO.P,J12,A12*%
%TO.N,GND*%
X182950000Y-84000000D03*
%TO.P,J12,B1*%
X182950000Y-85350000D03*
%TO.P,J12,B4*%
%TO.N,unconnected-(J12-PadB4)*%
X182100000Y-85350000D03*
%TO.P,J12,B5*%
%TO.N,N$8*%
X181250000Y-85350000D03*
%TO.P,J12,B6*%
%TO.N,USB_CMSN_DP*%
X180400000Y-85350000D03*
%TO.P,J12,B7*%
%TO.N,USB_CMSN_DM*%
X179550000Y-85350000D03*
%TO.P,J12,B8*%
%TO.N,N/C*%
X178700000Y-85350000D03*
%TO.P,J12,B9*%
%TO.N,unconnected-(J12-PadB9)*%
X177850000Y-85350000D03*
%TO.P,J12,B12*%
%TO.N,GND*%
X177000000Y-85350000D03*
D13*
%TO.P,J12,SH*%
X175650000Y-84980000D03*
D14*
X175650000Y-88360000D03*
D13*
X184300000Y-84980000D03*
D14*
X184300000Y-88360000D03*
%TD*%
D15*
%TO.P,U8,17*%
%TO.N,GND*%
X133500000Y-93500000D03*
X133500000Y-94500000D03*
D16*
X134000000Y-94000000D03*
D15*
X134500000Y-93500000D03*
X134500000Y-94500000D03*
%TD*%
D17*
%TO.P,J13,1*%
%TO.N,ANEMO_V_SENSOR*%
X140000000Y-176000000D03*
D18*
%TO.P,J13,2*%
%TO.N,GND*%
X142540000Y-176000000D03*
%TO.P,J13,3*%
%TO.N,ANEMO_RS485_A*%
X145080000Y-176000000D03*
%TO.P,J13,4*%
%TO.N,ANEMO_RS485_B*%
X147620000Y-176000000D03*
%TO.P,J13,5*%
%TO.N,GND*%
X150160000Y-176000000D03*
%TD*%
D17*
%TO.P,J9,1*%
%TO.N,3V3*%
X125000000Y-140000000D03*
D18*
%TO.P,J9,2*%
%TO.N,GND*%
X125000000Y-142540000D03*
%TO.P,J9,3*%
%TO.N,SCL1*%
X125000000Y-145080000D03*
%TO.P,J9,4*%
%TO.N,SDA1*%
X125000000Y-147620000D03*
%TO.P,J9,5*%
%TO.N,unconnected-(J9-Pad5)*%
X125000000Y-150160000D03*
%TD*%
D17*
%TO.P,J10,1*%
%TO.N,3V3*%
X140000000Y-140000000D03*
D18*
%TO.P,J10,2*%
%TO.N,GND*%
X140000000Y-142540000D03*
%TO.P,J10,3*%
%TO.N,RAIN_AO*%
X140000000Y-145080000D03*
%TO.P,J10,4*%
%TO.N,unconnected-(J10-Pad4)*%
X140000000Y-147620000D03*
%TD*%
D17*
%TO.P,J11,1*%
%TO.N,3V3*%
X170000000Y-164000000D03*
D18*
%TO.P,J11,2*%
%TO.N,DBG_TX*%
X170000000Y-166540000D03*
%TO.P,J11,3*%
%TO.N,DBG_RX*%
X170000000Y-169080000D03*
%TO.P,J11,4*%
%TO.N,GND*%
X170000000Y-171620000D03*
%TD*%
D19*
%TO.P,U9,9*%
%TO.N,GND*%
X137350000Y-108050000D03*
X137350000Y-109350000D03*
X137350000Y-110650000D03*
X137350000Y-111950000D03*
D20*
X138000000Y-110000000D03*
D19*
X138650000Y-108050000D03*
X138650000Y-109350000D03*
X138650000Y-110650000D03*
X138650000Y-111950000D03*
%TD*%
D21*
%TO.P,U5,1*%
%TO.N,3V3*%
X125000000Y-155000000D03*
D22*
%TO.P,U5,2*%
%TO.N,GPIO4_DHT22*%
X125000000Y-157540000D03*
%TO.P,U5,3*%
%TO.N,N/C*%
X125000000Y-160080000D03*
%TO.P,U5,4*%
%TO.N,GND*%
X125000000Y-162620000D03*
%TD*%
D23*
%TO.N,3V3*%
X124977300Y-125050000D03*
X185091600Y-153581500D03*
X171729100Y-145648900D03*
X193554500Y-97870000D03*
X192382600Y-123945200D03*
X124919400Y-103819800D03*
X171729100Y-151789300D03*
%TO.N,5V_RAIL*%
X158675000Y-110000000D03*
X214000000Y-97340000D03*
X139650000Y-125050000D03*
X170000000Y-109380000D03*
X123820000Y-132000000D03*
X149520000Y-118860000D03*
X122650000Y-125050000D03*
X157450000Y-112000000D03*
%TO.N,SDA1*%
X194600000Y-98362700D03*
X186623700Y-147778800D03*
X128172300Y-151095800D03*
%TO.N,SCL1*%
X181941600Y-152563900D03*
X193455300Y-95891700D03*
X128849800Y-150690600D03*
%TO.N,GND*%
X131480000Y-132860000D03*
X216105000Y-170510000D03*
X135480000Y-148860000D03*
X157475000Y-103450000D03*
X194749500Y-93657900D03*
X216270000Y-158350000D03*
X172480000Y-120860000D03*
X137900000Y-153300000D03*
X201047100Y-92848100D03*
X194921300Y-89661700D03*
X139510000Y-87870000D03*
X200942300Y-95278100D03*
X179650000Y-126475000D03*
X216270000Y-156350000D03*
X160000000Y-172620000D03*
X214025000Y-154255000D03*
X134304800Y-99175200D03*
X137900000Y-153300000D03*
X214480000Y-120860000D03*
X207465000Y-169480000D03*
X156000000Y-169905000D03*
X190480000Y-112860000D03*
X203895000Y-170510000D03*
X203730000Y-158350000D03*
X212545000Y-169480000D03*
X163950000Y-120275000D03*
X190100000Y-132050000D03*
X214212500Y-127137500D03*
X136800000Y-155000000D03*
X181308600Y-110510100D03*
X203730000Y-156350000D03*
X137900000Y-153300000D03*
X131950000Y-174000000D03*
X214000000Y-94660000D03*
X133501500Y-87778500D03*
X129480000Y-101860000D03*
X188400000Y-132050000D03*
X137900000Y-153300000D03*
%TO.N,GPIO4_DHT22*%
X148538300Y-157331300D03*
X185845400Y-145779400D03*
X154790100Y-149554000D03*
X194108800Y-99508700D03*
%TO.N,UART_TX_3V3*%
X194923700Y-95904400D03*
X206422000Y-128139300D03*
X204899200Y-116425900D03*
X195329600Y-116425900D03*
%TO.N,UART_RX_3V3*%
X193997700Y-93427800D03*
X195998700Y-124477200D03*
%TO.N,CELL_EN*%
X191434200Y-104299400D03*
X142419200Y-105748900D03*
X141236800Y-127732300D03*
X195417900Y-99183300D03*
%TO.N,CHG_STAT1*%
X125285300Y-102685400D03*
X125285300Y-94301700D03*
X125285300Y-84254500D03*
%TO.N,CELL_NET_STATUS*%
X212626400Y-124948000D03*
X212626400Y-101286500D03*
%TO.N,CELL_PWRKEY*%
X208886500Y-125937700D03*
X209133300Y-100726000D03*
%TO.N,CELL_RESET*%
X197738100Y-93562300D03*
X208581600Y-124940600D03*
X208136500Y-89012900D03*
X197738100Y-89012900D03*
%TO.N,CELL_STATUS*%
X197187200Y-100904400D03*
X210325000Y-125927500D03*
X197363800Y-95324300D03*
X210897500Y-102331000D03*
%TO.N,SPI0_MOSI*%
X206320500Y-100156400D03*
X119708900Y-81522700D03*
X206320500Y-81170900D03*
X119708900Y-143901500D03*
%TO.N,SPI0_MISO*%
X194566800Y-83167300D03*
X115680400Y-144134400D03*
X118499800Y-83143300D03*
X198243500Y-98584300D03*
%TO.N,GPIO25_VSYNC*%
X196556400Y-85200800D03*
X110482500Y-145250000D03*
X198127600Y-95280600D03*
X113396200Y-82039900D03*
%TO.N,SPI0_SCLK*%
X118956700Y-156485400D03*
X200977700Y-99753100D03*
X198448400Y-151573200D03*
X118956700Y-144693700D03*
%TO.N,SPI0_CE0*%
X119104600Y-82591600D03*
X195325700Y-83121200D03*
X119104600Y-143286700D03*
X195999200Y-92680000D03*
%TO.N,CHG_STAT2*%
X128480300Y-95697500D03*
X198934300Y-95288700D03*
X128480300Y-102685400D03*
X130932700Y-81722600D03*
X197250000Y-85634700D03*
%TO.N,ANEMO_UART_TX*%
X196903600Y-162898300D03*
X199874100Y-99421500D03*
%TO.N,ANEMO_UART_RX*%
X180675500Y-157813900D03*
X180675500Y-92346400D03*
%TO.N,SHIFTER_OE*%
X203570900Y-98930500D03*
X204513000Y-129186500D03*
X199238800Y-156563500D03*
%TO.N,ANEMO_DE*%
X197873200Y-162123900D03*
X200737400Y-96721000D03*
%TO.N,DBG_TX*%
X179108000Y-91532200D03*
%TO.N,DBG_RX*%
X200495500Y-98361700D03*
X196213600Y-166105000D03*
%TO.N,USB_CMSN_DP*%
X180400000Y-90316300D03*
%TO.N,USB_CMSN_DM*%
X196809600Y-84397500D03*
X201493100Y-96687400D03*
%TO.N,USB_DP*%
X200022600Y-132355400D03*
X202484100Y-95869400D03*
%TO.N,USB_DM*%
X202359700Y-94816600D03*
X199790600Y-136300000D03*
%TO.N,VBAT*%
X136153800Y-107197400D03*
X135894400Y-95378200D03*
X112000000Y-113503600D03*
X134837400Y-87526400D03*
%TO.N,N$1*%
X202158300Y-152951900D03*
X202158300Y-134906300D03*
%TO.N,N$2*%
X205077900Y-153503700D03*
X204829400Y-134290600D03*
%TO.N,N$3*%
X205343100Y-131651700D03*
X205645100Y-154351100D03*
%TO.N,N$4*%
X207532300Y-154134900D03*
X204830600Y-131099900D03*
%TO.N,ANT_MATCH*%
X180085800Y-112000000D03*
X171987800Y-130507800D03*
X175480500Y-125192800D03*
%TO.N,3V8_CELL*%
X197503100Y-145454300D03*
X153377800Y-150713200D03*
X145219400Y-132768700D03*
X197503100Y-150713200D03*
X197503100Y-125937000D03*
%TO.N,N$5*%
X120943600Y-155919000D03*
X120943600Y-147328800D03*
%TO.N,N$6*%
X141454600Y-140781600D03*
X137280300Y-144448400D03*
%TO.N,ANEMO_RS485_A*%
X145080000Y-172700800D03*
%TO.N,ANEMO_RS485_B*%
X146143200Y-170472700D03*
%TO.N,CELL_TX_1V8*%
X203376500Y-144300000D03*
X203376500Y-132864100D03*
%TO.N,VDD_EXT_1V8*%
X195236600Y-148019400D03*
X195360000Y-124941100D03*
%TO.N,CELL_RX_1V8*%
X202711500Y-135516500D03*
X202711500Y-145855000D03*
%TO.N,CELL_STATUS_1V8*%
X204656300Y-136923300D03*
X204656300Y-149837100D03*
%TO.N,CELL_NET_1V8*%
X194327100Y-147615500D03*
X194327100Y-151983900D03*
X204036600Y-150711400D03*
X204036600Y-137830000D03*
%TO.N,CHG_VREF*%
X127597600Y-100924300D03*
X127597600Y-96532100D03*
%TO.N,N$7*%
X170741400Y-96039700D03*
%TO.N,CHG_MPPSET*%
X131210500Y-86520800D03*
X130546400Y-93750000D03*
%TO.N,N$8*%
X181250000Y-96000000D03*
%TO.N,BUCK_FB*%
X140772200Y-106433000D03*
X171757800Y-112510000D03*
X139937200Y-112667800D03*
X171757800Y-106719700D03*
%TO.N,CHG_VFB*%
X132948300Y-97235200D03*
X132743900Y-88060400D03*
%TO.N,RAIN_AO*%
X146570200Y-156383800D03*
X146635400Y-158991800D03*
%TO.N,CHG_BTST*%
X131602100Y-84813800D03*
X131910800Y-92342300D03*
X135116900Y-91506500D03*
%TD*%
%TO.N,3V3*%
D24*
X192382600Y-99041900D02*
X192382600Y-123945200D01*
X122868100Y-151666400D02*
X125000000Y-153798300D01*
X125000000Y-140000000D02*
X122868100Y-142131900D01*
X125000000Y-140000000D02*
X125000000Y-138698300D01*
X170000000Y-162698300D02*
X171729100Y-160969200D01*
X124977300Y-138675600D02*
X124977300Y-125050000D01*
X124919400Y-124992100D02*
X124919400Y-103819800D01*
X170000000Y-164000000D02*
X170000000Y-162698300D01*
X171729100Y-160969200D02*
X171729100Y-151789300D01*
X124977300Y-125050000D02*
X124919400Y-124992100D01*
X125000000Y-155000000D02*
X125000000Y-153798300D01*
X171729100Y-151789300D02*
X171729100Y-145648900D01*
X122868100Y-142131900D02*
X122868100Y-151666400D01*
X193554500Y-97870000D02*
X192382600Y-99041900D01*
X185091600Y-153581500D02*
X185091600Y-131236200D01*
X125000000Y-138698300D02*
X124977300Y-138675600D01*
X185091600Y-131236200D02*
X192382600Y-123945200D01*
%TO.N,SDA1*%
D25*
X194600000Y-98362700D02*
X194660500Y-98423200D01*
X125000000Y-147620000D02*
X125000000Y-147923500D01*
X125000000Y-147923500D02*
X128172300Y-151095800D01*
X194660500Y-98423200D02*
X194660500Y-139742000D01*
X194660500Y-139742000D02*
X186623700Y-147778800D01*
%TO.N,SCL1*%
X128849800Y-150690600D02*
X128849800Y-148929800D01*
X128849800Y-148929800D02*
X125000000Y-145080000D01*
X193455300Y-95891700D02*
X181941600Y-107405400D01*
X181941600Y-107405400D02*
X181941600Y-152563900D01*
%TO.N,GND*%
D24*
X137350000Y-108050000D02*
X135923500Y-108050000D01*
X200942300Y-92952900D02*
X200942300Y-95278100D01*
X123685400Y-151330900D02*
X126206200Y-153851700D01*
X134500000Y-94500000D02*
X134500000Y-98980000D01*
X133500000Y-93500000D02*
X133501500Y-93498500D01*
X177000000Y-85350000D02*
X177000000Y-84000000D01*
X201047100Y-92848100D02*
X200942300Y-92952900D01*
X134304800Y-106431300D02*
X134304800Y-99175200D01*
X126206200Y-153851700D02*
X126206200Y-161413800D01*
X135923500Y-108050000D02*
X134304800Y-106431300D01*
X175650000Y-88360000D02*
X175650000Y-84980000D01*
X134500000Y-98980000D02*
X134304800Y-99175200D01*
X133500000Y-94500000D02*
X133500000Y-93500000D01*
X184300000Y-84980000D02*
X184300000Y-88360000D01*
X123685400Y-143854600D02*
X123685400Y-151330900D01*
X181308600Y-101891600D02*
X181308600Y-110510100D01*
X184300000Y-88360000D02*
X184300000Y-98900200D01*
X137350000Y-110650000D02*
X137350000Y-109350000D01*
X138650000Y-109350000D02*
X138650000Y-110650000D01*
X137350000Y-111950000D02*
X137350000Y-110650000D01*
X125000000Y-142540000D02*
X123685400Y-143854600D01*
X137350000Y-109350000D02*
X137350000Y-108050000D01*
X134000000Y-94000000D02*
X133500000Y-94500000D01*
X184300000Y-98900200D02*
X181308600Y-101891600D01*
X126206200Y-161413800D02*
X125000000Y-162620000D01*
X138650000Y-108050000D02*
X138650000Y-109350000D01*
X194921300Y-89661700D02*
X194749500Y-89833500D01*
X182950000Y-85350000D02*
X182950000Y-84000000D01*
X138000000Y-110000000D02*
X138650000Y-110650000D01*
X133501500Y-93498500D02*
X133501500Y-87778500D01*
X194749500Y-89833500D02*
X194749500Y-93657900D01*
%TO.N,GPIO4_DHT22*%
D25*
X154790100Y-149554000D02*
X154790100Y-151079500D01*
X185845400Y-145779400D02*
X194108800Y-137516000D01*
X154790100Y-151079500D02*
X148538300Y-157331300D01*
X194108800Y-137516000D02*
X194108800Y-99508700D01*
%TO.N,UART_TX_3V3*%
X195998700Y-99942900D02*
X195998700Y-96979400D01*
X195998700Y-96979400D02*
X194923700Y-95904400D01*
X195329600Y-100612000D02*
X195998700Y-99942900D01*
X195329600Y-116425900D02*
X195329600Y-100612000D01*
X204899200Y-116425900D02*
X204899200Y-126616500D01*
X204899200Y-126616500D02*
X206422000Y-128139300D01*
%TO.N,UART_RX_3V3*%
X195998700Y-124477200D02*
X195998700Y-116149300D01*
X193997700Y-94196000D02*
X193997700Y-93427800D01*
X196350400Y-115797600D02*
X196350400Y-96548700D01*
X196350400Y-96548700D02*
X193997700Y-94196000D01*
X195998700Y-116149300D02*
X196350400Y-115797600D01*
%TO.N,CELL_EN*%
X142419200Y-105748900D02*
X142419200Y-126549900D01*
X142419200Y-126549900D02*
X141236800Y-127732300D01*
X193337800Y-97266300D02*
X194342500Y-97266300D01*
X191434200Y-99169900D02*
X193337800Y-97266300D01*
X191434200Y-104299400D02*
X191434200Y-99169900D01*
X195417900Y-98341700D02*
X195417900Y-99183300D01*
X194342500Y-97266300D02*
X195417900Y-98341700D01*
%TO.N,CHG_STAT1*%
X125285300Y-94301700D02*
X125285300Y-84254500D01*
X125285300Y-102685400D02*
X125285300Y-94301700D01*
%TO.N,CELL_NET_STATUS*%
X212626400Y-124948000D02*
X212626400Y-101286500D01*
%TO.N,CELL_PWRKEY*%
X209133300Y-125690900D02*
X209133300Y-100726000D01*
X208886500Y-125937700D02*
X209133300Y-125690900D01*
%TO.N,CELL_RESET*%
X208136500Y-124495500D02*
X208136500Y-89012900D01*
X208581600Y-124940600D02*
X208136500Y-124495500D01*
X197738100Y-93562300D02*
X197738100Y-89012900D01*
%TO.N,CELL_STATUS*%
X210897500Y-125355000D02*
X210325000Y-125927500D01*
X198805400Y-99286200D02*
X198805400Y-96765900D01*
X197187200Y-100904400D02*
X198805400Y-99286200D01*
X210897500Y-102331000D02*
X210897500Y-125355000D01*
X198805400Y-96765900D02*
X197363800Y-95324300D01*
%TO.N,SPI0_MOSI*%
X119708900Y-143901500D02*
X119708900Y-81522700D01*
X206320500Y-100156400D02*
X206320500Y-81170900D01*
%TO.N,SPI0_MISO*%
X115680400Y-144134400D02*
X118499800Y-141315000D01*
X194566800Y-83167300D02*
X195515500Y-84116000D01*
X195408300Y-92344500D02*
X195408300Y-94323600D01*
X195408300Y-94323600D02*
X198243500Y-97158800D01*
X195515500Y-92237300D02*
X195408300Y-92344500D01*
X195515500Y-84116000D02*
X195515500Y-92237300D01*
X118499800Y-141315000D02*
X118499800Y-83143300D01*
X198243500Y-97158800D02*
X198243500Y-98584300D01*
%TO.N,GPIO25_VSYNC*%
X113396200Y-110978900D02*
X113396200Y-82039900D01*
X110482500Y-113892600D02*
X113396200Y-110978900D01*
X196556400Y-85200800D02*
X196556400Y-93709400D01*
X196556400Y-93709400D02*
X198127600Y-95280600D01*
X110482500Y-145250000D02*
X110482500Y-113892600D01*
%TO.N,SPI0_SCLK*%
X198448400Y-102282400D02*
X200977700Y-99753100D01*
X118956700Y-144693700D02*
X118956700Y-156485400D01*
X198448400Y-151573200D02*
X198448400Y-102282400D01*
%TO.N,SPI0_CE0*%
X195325700Y-83121200D02*
X195999200Y-83794700D01*
X119104600Y-82591600D02*
X119104600Y-143286700D01*
X195999200Y-83794700D02*
X195999200Y-92680000D01*
%TO.N,CHG_STAT2*%
X197759600Y-94114000D02*
X197509700Y-94114000D01*
X197509700Y-94114000D02*
X197160200Y-93764500D01*
X197160200Y-85724500D02*
X197250000Y-85634700D01*
X128480300Y-95697500D02*
X128480300Y-84175000D01*
X197160200Y-93764500D02*
X197160200Y-85724500D01*
X128480300Y-102685400D02*
X128480300Y-95697500D01*
X128480300Y-84175000D02*
X130932700Y-81722600D01*
X198934300Y-95288700D02*
X197759600Y-94114000D01*
%TO.N,ANEMO_UART_TX*%
X196903600Y-116293800D02*
X197178000Y-116019400D01*
X197178000Y-102279200D02*
X199874100Y-99583100D01*
X196903600Y-162898300D02*
X196903600Y-116293800D01*
X197178000Y-116019400D02*
X197178000Y-102279200D01*
X199874100Y-99583100D02*
X199874100Y-99421500D01*
%TO.N,ANEMO_UART_RX*%
X180675500Y-157813900D02*
X180675500Y-92346400D01*
%TO.N,SHIFTER_OE*%
X203570900Y-98930500D02*
X203570900Y-128839900D01*
X203570900Y-128839900D02*
X203917500Y-129186500D01*
X203917500Y-129240700D02*
X199238800Y-133919400D01*
X203917500Y-129186500D02*
X203917500Y-129240700D01*
X203917500Y-129186500D02*
X204513000Y-129186500D01*
X199238800Y-133919400D02*
X199238800Y-156563500D01*
%TO.N,ANEMO_DE*%
X201047200Y-98785400D02*
X201047200Y-97030800D01*
X197873200Y-151368300D02*
X198089300Y-151152200D01*
X200425900Y-99406700D02*
X201047200Y-98785400D01*
X201047200Y-97030800D02*
X200737400Y-96721000D01*
X198089300Y-151152200D02*
X198089300Y-101986700D01*
X197873200Y-162123900D02*
X197873200Y-151368300D01*
X198089300Y-101986700D02*
X200425900Y-99650100D01*
X200425900Y-99650100D02*
X200425900Y-99406700D01*
%TO.N,DBG_TX*%
X168887100Y-101753100D02*
X179108000Y-91532200D01*
X168887100Y-165427100D02*
X168887100Y-101753100D01*
X170000000Y-166540000D02*
X168887100Y-165427100D01*
%TO.N,DBG_RX*%
X200120100Y-98361700D02*
X200495500Y-98361700D01*
X196213600Y-126440700D02*
X196550400Y-126103900D01*
X196826300Y-115873800D02*
X196826300Y-102045500D01*
X196550400Y-126103900D02*
X196550400Y-116149700D01*
X196550400Y-116149700D02*
X196826300Y-115873800D01*
X196826300Y-102045500D02*
X199228800Y-99643000D01*
X199228800Y-99253000D02*
X200120100Y-98361700D01*
X196213600Y-166105000D02*
X196213600Y-126440700D01*
X199228800Y-99643000D02*
X199228800Y-99253000D01*
%TO.N,USB_CMSN_DP*%
X180400000Y-85350000D02*
X180400000Y-90316300D01*
%TO.N,USB_CMSN_DM*%
X198289800Y-93484100D02*
X198289800Y-85877700D01*
X179550000Y-85181900D02*
X180400000Y-84331900D01*
X179550000Y-85350000D02*
X179550000Y-85181900D01*
X198289800Y-85877700D02*
X196809600Y-84397500D01*
X180400000Y-84331900D02*
X180400000Y-84000000D01*
X201493100Y-96687400D02*
X198289800Y-93484100D01*
%TO.N,USB_DP*%
X202484100Y-129893900D02*
X202484100Y-95869400D01*
X200022600Y-132355400D02*
X202484100Y-129893900D01*
%TO.N,USB_DM*%
X204152000Y-127880900D02*
X205072400Y-128801300D01*
X199790600Y-135307600D02*
X199790600Y-136300000D01*
X205072400Y-128801300D02*
X205072400Y-130025800D01*
X202359700Y-94816600D02*
X204152000Y-96608900D01*
X204152000Y-96608900D02*
X204152000Y-127880900D01*
X205072400Y-130025800D02*
X199790600Y-135307600D01*
%TO.N,VBAT*%
D24*
X112000000Y-176000000D02*
X112000000Y-113503600D01*
X135894400Y-95378200D02*
X136153800Y-95637600D01*
X135894400Y-95378200D02*
X135894400Y-88583400D01*
X136153800Y-95637600D02*
X136153800Y-107197400D01*
X135894400Y-88583400D02*
X134837400Y-87526400D01*
%TO.N,N$1*%
D25*
X202158300Y-134906300D02*
X202158300Y-152951900D01*
%TO.N,N$2*%
X205208000Y-134669200D02*
X204829400Y-134290600D01*
X205208000Y-153373600D02*
X205208000Y-134669200D01*
X205077900Y-153503700D02*
X205208000Y-153373600D01*
%TO.N,N$3*%
X205343100Y-131651700D02*
X205645100Y-131953700D01*
X205645100Y-131953700D02*
X205645100Y-154351100D01*
%TO.N,N$4*%
X207532300Y-154134900D02*
X207532300Y-133054800D01*
X205577400Y-131099900D02*
X204830600Y-131099900D01*
X207532300Y-133054800D02*
X205577400Y-131099900D01*
%TO.N,ANT_MATCH*%
X180085800Y-120587500D02*
X175480500Y-125192800D01*
X180085800Y-112000000D02*
X180085800Y-120587500D01*
X175480500Y-125192800D02*
X171987800Y-128685500D01*
X171987800Y-128685500D02*
X171987800Y-130507800D01*
%TO.N,3V8_CELL*%
D24*
X153377800Y-140927100D02*
X145219400Y-132768700D01*
X197503100Y-125937000D02*
X197503100Y-145454300D01*
X197503100Y-145454300D02*
X197503100Y-150713200D01*
X153377800Y-150713200D02*
X153377800Y-140927100D01*
%TO.N,N$5*%
D25*
X120943600Y-147328800D02*
X120943600Y-155919000D01*
%TO.N,N$6*%
X139858600Y-141101700D02*
X137280300Y-143680000D01*
X141454600Y-140781600D02*
X141134500Y-141101700D01*
X141134500Y-141101700D02*
X139858600Y-141101700D01*
X137280300Y-143680000D02*
X137280300Y-144448400D01*
%TO.N,ANEMO_RS485_A*%
X145080000Y-176000000D02*
X145080000Y-172700800D01*
%TO.N,ANEMO_RS485_B*%
X147620000Y-176000000D02*
X147620000Y-171949500D01*
X147620000Y-171949500D02*
X146143200Y-170472700D01*
%TO.N,CELL_TX_1V8*%
X203376500Y-132864100D02*
X203376500Y-144300000D01*
%TO.N,VDD_EXT_1V8*%
X195236600Y-125064500D02*
X195236600Y-148019400D01*
X195360000Y-124941100D02*
X195236600Y-125064500D01*
%TO.N,CELL_RX_1V8*%
X202711500Y-145855000D02*
X202711500Y-135516500D01*
%TO.N,CELL_STATUS_1V8*%
X204656300Y-136923300D02*
X204656300Y-149837100D01*
%TO.N,CELL_NET_1V8*%
X194327100Y-147615500D02*
X194327100Y-151983900D01*
X204036600Y-137830000D02*
X204036600Y-150711400D01*
%TO.N,CHG_VREF*%
X127597600Y-100924300D02*
X127597600Y-96532100D01*
%TO.N,N$7*%
X170741400Y-88064300D02*
X170741400Y-96039700D01*
X178700000Y-84000000D02*
X178700000Y-83865700D01*
X175474100Y-83331600D02*
X170741400Y-88064300D01*
X178165900Y-83331600D02*
X175474100Y-83331600D01*
X178700000Y-83865700D02*
X178165900Y-83331600D01*
%TO.N,CHG_MPPSET*%
X130546400Y-93750000D02*
X130546400Y-87184900D01*
X130546400Y-87184900D02*
X131210500Y-86520800D01*
%TO.N,N$8*%
X181250000Y-85350000D02*
X181250000Y-96000000D01*
%TO.N,BUCK_FB*%
X171757800Y-106719700D02*
X171757800Y-112510000D01*
X139937200Y-112667800D02*
X140772200Y-111832800D01*
X140772200Y-111832800D02*
X140772200Y-106433000D01*
%TO.N,CHG_VFB*%
X132948300Y-97235200D02*
X132948300Y-88264800D01*
X132948300Y-88264800D02*
X132743900Y-88060400D01*
%TO.N,RAIN_AO*%
X146570200Y-158926600D02*
X146635400Y-158991800D01*
X146570200Y-151650200D02*
X146570200Y-156383800D01*
X140000000Y-145080000D02*
X146570200Y-151650200D01*
X146570200Y-156383800D02*
X146570200Y-158926600D01*
%TO.N,CHG_BTST*%
X135116900Y-88599800D02*
X135116900Y-91506500D01*
X131910800Y-87172200D02*
X133689300Y-87172200D01*
X131910800Y-85122500D02*
X131910800Y-87172200D01*
X131602100Y-84813800D02*
X131910800Y-85122500D01*
X131910800Y-87172200D02*
X131910800Y-92342300D01*
X133689300Y-87172200D02*
X135116900Y-88599800D01*
%TD*%
M02*
