%TF.GenerationSoftware,KiCad,Pcbnew,10.0.6*%
%TF.CreationDate,2026-09-08T21:37:06-05:00*%
%TF.ProjectId,dlr_carrier,646c725f-6361-4727-9269-65722e6b6963,rev?*%
%TF.SameCoordinates,Original*%
%TF.FileFunction,Soldermask,Bot*%
%TF.FilePolarity,Negative*%
%FSLAX46Y46*%
G04 Gerber Fmt 4.6, Leading zero omitted, Abs format (unit mm)*
G04 Created by KiCad (PCBNEW 10.0.6) date 2026-09-08 21:37:06*
%MOMM*%
%LPD*%
G01*
G04 APERTURE LIST*
G04 Aperture macros list*
%AMRoundRect*
0 Rectangle with rounded corners*
0 $1 Rounding radius*
0 $2 $3 $4 $5 $6 $7 $8 $9 X,Y pos of 4 corners*
0 Add a 4 corners polygon primitive as box body*
4,1,4,$2,$3,$4,$5,$6,$7,$8,$9,$2,$3,0*
0 Add four circle primitives for the rounded corners*
1,1,$1+$1,$2,$3*
1,1,$1+$1,$4,$5*
1,1,$1+$1,$6,$7*
1,1,$1+$1,$8,$9*
0 Add four rect primitives between the rounded corners*
20,1,$1+$1,$2,$3,$4,$5,0*
20,1,$1+$1,$4,$5,$6,$7,0*
20,1,$1+$1,$6,$7,$8,$9,0*
20,1,$1+$1,$8,$9,$2,$3,0*%
G04 Aperture macros list end*
%ADD10RoundRect,0.250000X-1.050000X-1.050000X1.050000X-1.050000X1.050000X1.050000X-1.050000X1.050000X0*%
%ADD11C,2.600000*%
%ADD12C,0.700000*%
%ADD13O,0.900000X2.400000*%
%ADD14O,0.900000X1.700000*%
%ADD15R,1.700000X1.700000*%
%ADD16C,1.700000*%
%ADD17R,1.500000X1.500000*%
%ADD18C,1.500000*%
G04 APERTURE END LIST*
D10*
%TO.C,J1*%
X110000000Y-92000000D03*
D11*
X115080000Y-92000000D03*
%TD*%
D10*
%TO.C,J3*%
X112000000Y-176000000D03*
D11*
X117080000Y-176000000D03*
%TD*%
D12*
%TO.C,J12*%
X177000000Y-84000000D03*
X177850000Y-84000000D03*
X178700000Y-84000000D03*
X179550000Y-84000000D03*
X180400000Y-84000000D03*
X181250000Y-84000000D03*
X182100000Y-84000000D03*
X182950000Y-84000000D03*
X182950000Y-85350000D03*
X182100000Y-85350000D03*
X181250000Y-85350000D03*
X180400000Y-85350000D03*
X179550000Y-85350000D03*
X178700000Y-85350000D03*
X177850000Y-85350000D03*
X177000000Y-85350000D03*
D13*
X175650000Y-84980000D03*
D14*
X175650000Y-88360000D03*
D13*
X184300000Y-84980000D03*
D14*
X184300000Y-88360000D03*
%TD*%
D15*
%TO.C,J13*%
X140000000Y-176000000D03*
D16*
X142540000Y-176000000D03*
X145080000Y-176000000D03*
X147620000Y-176000000D03*
X150160000Y-176000000D03*
%TD*%
D15*
%TO.C,J9*%
X125000000Y-140000000D03*
D16*
X125000000Y-142540000D03*
X125000000Y-145080000D03*
X125000000Y-147620000D03*
X125000000Y-150160000D03*
%TD*%
D15*
%TO.C,J10*%
X140000000Y-140000000D03*
D16*
X140000000Y-142540000D03*
X140000000Y-145080000D03*
X140000000Y-147620000D03*
%TD*%
D15*
%TO.C,J11*%
X170000000Y-164000000D03*
D16*
X170000000Y-166540000D03*
X170000000Y-169080000D03*
X170000000Y-171620000D03*
%TD*%
D17*
%TO.C,U5*%
X125000000Y-155000000D03*
D18*
X125000000Y-157540000D03*
X125000000Y-160080000D03*
X125000000Y-162620000D03*
%TD*%
M02*
