%TF.GenerationSoftware,KiCad,Pcbnew,10.0.6*%
%TF.CreationDate,2026-09-08T21:37:06-05:00*%
%TF.ProjectId,dlr_carrier,646c725f-6361-4727-9269-65722e6b6963,rev?*%
%TF.SameCoordinates,Original*%
%TF.FileFunction,OtherDrawing,Comment*%
%FSLAX46Y46*%
G04 Gerber Fmt 4.6, Leading zero omitted, Abs format (unit mm)*
G04 Created by KiCad (PCBNEW 10.0.6) date 2026-09-08 21:37:06*
%MOMM*%
%LPD*%
G01*
G04 APERTURE LIST*
%ADD10C,0.100000*%
G04 APERTURE END LIST*
D10*
X178260714Y-90326109D02*
X178260714Y-89826109D01*
X178260714Y-89826109D02*
X178451190Y-89826109D01*
X178451190Y-89826109D02*
X178498809Y-89849919D01*
X178498809Y-89849919D02*
X178522619Y-89873728D01*
X178522619Y-89873728D02*
X178546428Y-89921347D01*
X178546428Y-89921347D02*
X178546428Y-89992776D01*
X178546428Y-89992776D02*
X178522619Y-90040395D01*
X178522619Y-90040395D02*
X178498809Y-90064204D01*
X178498809Y-90064204D02*
X178451190Y-90088014D01*
X178451190Y-90088014D02*
X178260714Y-90088014D01*
X179046428Y-90278490D02*
X179022619Y-90302300D01*
X179022619Y-90302300D02*
X178951190Y-90326109D01*
X178951190Y-90326109D02*
X178903571Y-90326109D01*
X178903571Y-90326109D02*
X178832143Y-90302300D01*
X178832143Y-90302300D02*
X178784524Y-90254680D01*
X178784524Y-90254680D02*
X178760714Y-90207061D01*
X178760714Y-90207061D02*
X178736905Y-90111823D01*
X178736905Y-90111823D02*
X178736905Y-90040395D01*
X178736905Y-90040395D02*
X178760714Y-89945157D01*
X178760714Y-89945157D02*
X178784524Y-89897538D01*
X178784524Y-89897538D02*
X178832143Y-89849919D01*
X178832143Y-89849919D02*
X178903571Y-89826109D01*
X178903571Y-89826109D02*
X178951190Y-89826109D01*
X178951190Y-89826109D02*
X179022619Y-89849919D01*
X179022619Y-89849919D02*
X179046428Y-89873728D01*
X179427381Y-90064204D02*
X179498809Y-90088014D01*
X179498809Y-90088014D02*
X179522619Y-90111823D01*
X179522619Y-90111823D02*
X179546428Y-90159442D01*
X179546428Y-90159442D02*
X179546428Y-90230871D01*
X179546428Y-90230871D02*
X179522619Y-90278490D01*
X179522619Y-90278490D02*
X179498809Y-90302300D01*
X179498809Y-90302300D02*
X179451190Y-90326109D01*
X179451190Y-90326109D02*
X179260714Y-90326109D01*
X179260714Y-90326109D02*
X179260714Y-89826109D01*
X179260714Y-89826109D02*
X179427381Y-89826109D01*
X179427381Y-89826109D02*
X179475000Y-89849919D01*
X179475000Y-89849919D02*
X179498809Y-89873728D01*
X179498809Y-89873728D02*
X179522619Y-89921347D01*
X179522619Y-89921347D02*
X179522619Y-89968966D01*
X179522619Y-89968966D02*
X179498809Y-90016585D01*
X179498809Y-90016585D02*
X179475000Y-90040395D01*
X179475000Y-90040395D02*
X179427381Y-90064204D01*
X179427381Y-90064204D02*
X179260714Y-90064204D01*
X180141666Y-90064204D02*
X180308333Y-90064204D01*
X180379761Y-90326109D02*
X180141666Y-90326109D01*
X180141666Y-90326109D02*
X180141666Y-89826109D01*
X180141666Y-89826109D02*
X180379761Y-89826109D01*
X180808333Y-90326109D02*
X180808333Y-89826109D01*
X180808333Y-90302300D02*
X180760714Y-90326109D01*
X180760714Y-90326109D02*
X180665476Y-90326109D01*
X180665476Y-90326109D02*
X180617857Y-90302300D01*
X180617857Y-90302300D02*
X180594047Y-90278490D01*
X180594047Y-90278490D02*
X180570238Y-90230871D01*
X180570238Y-90230871D02*
X180570238Y-90088014D01*
X180570238Y-90088014D02*
X180594047Y-90040395D01*
X180594047Y-90040395D02*
X180617857Y-90016585D01*
X180617857Y-90016585D02*
X180665476Y-89992776D01*
X180665476Y-89992776D02*
X180760714Y-89992776D01*
X180760714Y-89992776D02*
X180808333Y-90016585D01*
X181260714Y-89992776D02*
X181260714Y-90397538D01*
X181260714Y-90397538D02*
X181236904Y-90445157D01*
X181236904Y-90445157D02*
X181213095Y-90468966D01*
X181213095Y-90468966D02*
X181165476Y-90492776D01*
X181165476Y-90492776D02*
X181094047Y-90492776D01*
X181094047Y-90492776D02*
X181046428Y-90468966D01*
X181260714Y-90302300D02*
X181213095Y-90326109D01*
X181213095Y-90326109D02*
X181117857Y-90326109D01*
X181117857Y-90326109D02*
X181070238Y-90302300D01*
X181070238Y-90302300D02*
X181046428Y-90278490D01*
X181046428Y-90278490D02*
X181022619Y-90230871D01*
X181022619Y-90230871D02*
X181022619Y-90088014D01*
X181022619Y-90088014D02*
X181046428Y-90040395D01*
X181046428Y-90040395D02*
X181070238Y-90016585D01*
X181070238Y-90016585D02*
X181117857Y-89992776D01*
X181117857Y-89992776D02*
X181213095Y-89992776D01*
X181213095Y-89992776D02*
X181260714Y-90016585D01*
X181689285Y-90302300D02*
X181641666Y-90326109D01*
X181641666Y-90326109D02*
X181546428Y-90326109D01*
X181546428Y-90326109D02*
X181498809Y-90302300D01*
X181498809Y-90302300D02*
X181475000Y-90254680D01*
X181475000Y-90254680D02*
X181475000Y-90064204D01*
X181475000Y-90064204D02*
X181498809Y-90016585D01*
X181498809Y-90016585D02*
X181546428Y-89992776D01*
X181546428Y-89992776D02*
X181641666Y-89992776D01*
X181641666Y-89992776D02*
X181689285Y-90016585D01*
X181689285Y-90016585D02*
X181713095Y-90064204D01*
X181713095Y-90064204D02*
X181713095Y-90111823D01*
X181713095Y-90111823D02*
X181475000Y-90159442D01*
M02*
